<svg id="svg" version="1.1" viewBox="0 0 400 370" xmlns="http://www.w3.org/2000/svg" xmlns:xlink="http://www.w3.org/1999/xlink" ><g id="svgg"><path id="path0" d="M187.616 8.156 C 185.625 8.373,182.494 9.558,180.584 10.818 C 180.021 11.190,179.438 11.567,179.288 11.655 C 178.338 12.220,175.158 16.039,175.158 16.615 C 175.158 16.706,174.989 17.068,174.783 17.420 C 173.659 19.338,173.020 24.451,173.596 26.919 C 174.145 29.272,174.925 31.429,175.608 32.481 C 175.740 32.684,176.107 33.252,176.423 33.741 C 177.118 34.817,177.411 35.156,178.940 36.655 C 180.515 38.198,180.444 38.143,182.875 39.756 C 186.389 42.089,192.538 42.945,196.590 41.664 C 198.166 41.166,199.277 40.699,199.415 40.477 C 199.461 40.402,199.593 40.341,199.708 40.341 C 199.908 40.341,201.460 39.364,202.360 38.671 C 203.750 37.601,206.452 34.210,206.452 33.536 C 206.452 33.444,206.622 33.019,206.830 32.591 C 207.170 31.892,207.360 31.208,207.811 29.069 C 208.967 23.580,206.015 15.926,201.306 12.203 C 199.966 11.144,199.647 10.917,199.110 10.647 C 198.784 10.482,198.417 10.269,198.294 10.172 C 197.977 9.922,196.055 9.139,194.637 8.681 C 192.772 8.079,190.136 7.882,187.616 8.156 M174.490 44.361 C 172.970 44.580,170.420 45.160,168.939 45.623 C 168.578 45.736,168.147 45.829,167.983 45.829 C 167.818 45.829,167.012 46.035,166.192 46.287 C 165.372 46.539,164.034 46.945,163.218 47.190 C 161.405 47.733,158.927 48.561,157.731 49.023 C 157.241 49.212,156.207 49.612,155.432 49.911 C 154.657 50.211,153.606 50.649,153.096 50.886 C 152.586 51.123,152.129 51.316,152.080 51.316 C 151.998 51.316,147.954 53.239,147.393 53.545 C 147.254 53.621,146.553 53.994,145.836 54.374 C 143.343 55.695,143.044 55.860,142.420 56.257 C 142.075 56.476,141.754 56.656,141.706 56.656 C 141.658 56.656,141.327 56.856,140.971 57.100 C 140.616 57.345,140.280 57.545,140.225 57.545 C 140.169 57.545,139.871 57.746,139.562 57.990 C 139.253 58.235,138.952 58.435,138.892 58.435 C 138.788 58.435,136.283 60.097,134.742 61.189 C 134.334 61.478,133.766 61.869,133.479 62.057 C 133.193 62.245,132.868 62.509,132.757 62.642 C 132.646 62.775,132.467 62.885,132.359 62.885 C 132.250 62.885,132.108 62.968,132.043 63.070 C 131.978 63.172,131.357 63.689,130.664 64.220 C 129.369 65.210,129.289 65.275,128.487 65.965 C 125.139 68.847,121.503 72.413,119.302 74.976 C 118.740 75.630,118.160 76.298,118.014 76.459 C 117.037 77.536,116.567 78.309,116.889 78.309 C 118.633 78.309,122.964 79.891,125.595 81.490 C 126.274 81.902,126.941 82.306,127.078 82.388 C 127.343 82.546,127.692 82.838,129.030 84.019 C 129.850 84.743,131.681 86.764,132.188 87.505 C 133.134 88.887,133.758 89.875,133.838 90.116 C 133.889 90.270,134.050 90.550,134.194 90.737 L 134.457 91.078 135.660 89.773 C 136.669 88.677,138.658 86.690,140.666 84.772 C 140.915 84.533,141.620 83.912,142.232 83.392 C 142.844 82.873,143.511 82.292,143.715 82.101 C 144.223 81.627,146.030 80.280,148.678 78.401 C 149.470 77.840,150.429 77.155,150.809 76.881 C 151.190 76.606,151.668 76.309,151.872 76.222 C 152.076 76.135,152.343 75.974,152.465 75.865 C 152.666 75.686,153.198 75.378,154.660 74.592 C 154.929 74.448,155.248 74.248,155.369 74.147 C 155.771 73.813,161.609 70.894,161.874 70.894 C 161.929 70.894,162.254 70.767,162.596 70.611 C 163.849 70.043,166.297 69.114,166.542 69.114 C 166.680 69.114,166.856 69.059,166.934 68.991 C 167.070 68.872,167.586 68.702,170.560 67.795 C 172.243 67.282,176.311 66.296,176.745 66.296 C 176.914 66.296,177.911 66.132,178.960 65.932 C 182.148 65.324,186.213 65.034,191.398 65.044 C 196.754 65.055,199.731 65.289,203.560 66.000 C 204.375 66.151,205.376 66.317,205.784 66.369 C 206.192 66.421,207.193 66.630,208.009 66.834 C 208.825 67.038,209.826 67.267,210.234 67.343 C 212.702 67.805,219.368 69.947,222.692 71.347 C 223.263 71.587,223.784 71.784,223.850 71.784 C 223.915 71.784,224.373 71.984,224.866 72.228 C 225.359 72.473,225.824 72.673,225.899 72.673 C 226.075 72.673,230.379 74.812,230.810 75.113 C 230.990 75.240,231.230 75.343,231.343 75.343 C 231.456 75.343,231.801 75.543,232.110 75.788 C 232.419 76.033,232.770 76.233,232.890 76.233 C 233.010 76.233,233.267 76.357,233.462 76.509 C 233.656 76.662,234.175 76.979,234.614 77.214 C 235.053 77.449,235.587 77.735,235.800 77.849 C 236.014 77.963,236.422 78.232,236.707 78.447 C 236.993 78.662,237.409 78.929,237.632 79.042 C 237.855 79.154,238.169 79.369,238.330 79.519 C 238.491 79.670,238.660 79.792,238.706 79.792 C 238.839 79.792,240.454 80.880,240.744 81.164 C 240.890 81.307,241.069 81.424,241.143 81.424 C 241.216 81.424,241.818 81.858,242.481 82.388 C 243.143 82.918,243.733 83.353,243.793 83.355 C 243.852 83.357,244.140 83.574,244.433 83.837 C 244.726 84.101,245.257 84.549,245.612 84.835 C 248.196 86.909,250.038 88.582,253.069 91.607 C 255.261 93.794,255.362 93.902,256.883 95.662 C 258.479 97.508,259.942 99.324,260.585 100.260 C 260.782 100.545,260.983 100.812,261.033 100.853 C 261.084 100.894,261.340 101.244,261.604 101.631 C 262.242 102.569,262.280 102.555,263.330 101.006 C 263.574 100.645,264.042 100.073,264.368 99.735 C 264.694 99.396,265.197 98.859,265.485 98.540 C 265.774 98.221,266.149 97.861,266.319 97.738 C 266.489 97.616,266.998 97.235,267.450 96.891 C 268.896 95.790,271.402 94.476,272.778 94.098 C 273.210 93.979,273.964 93.765,274.453 93.622 C 275.179 93.411,275.935 93.363,278.548 93.363 L 281.753 93.363 281.403 92.904 C 281.211 92.652,281.053 92.389,281.053 92.320 C 281.053 92.252,280.926 92.058,280.771 91.889 C 280.615 91.721,280.365 91.377,280.214 91.125 C 279.786 90.407,279.097 89.403,278.685 88.897 C 278.478 88.643,278.164 88.242,277.986 88.007 C 274.316 83.140,268.201 76.504,263.997 72.825 C 263.222 72.147,262.455 71.472,262.291 71.325 C 261.110 70.258,259.453 68.884,257.119 67.037 C 256.655 66.670,256.062 66.187,255.802 65.962 C 255.542 65.738,255.244 65.554,255.139 65.554 C 255.035 65.554,254.950 65.494,254.950 65.420 C 254.950 65.347,254.600 65.048,254.171 64.755 C 253.743 64.463,253.126 64.025,252.799 63.781 C 252.473 63.537,251.872 63.130,251.465 62.877 C 251.057 62.624,250.490 62.251,250.206 62.049 C 249.449 61.510,247.850 60.470,247.403 60.226 C 247.190 60.110,246.755 59.827,246.437 59.596 C 246.119 59.366,245.790 59.177,245.707 59.177 C 245.624 59.177,245.450 59.083,245.321 58.969 C 245.021 58.703,243.496 57.860,240.267 56.177 C 239.329 55.688,238.395 55.200,238.191 55.092 C 237.206 54.573,234.019 53.096,233.884 53.096 C 233.800 53.096,233.385 52.920,232.961 52.706 C 232.537 52.491,231.855 52.195,231.446 52.047 C 231.036 51.900,230.033 51.501,229.218 51.162 C 222.579 48.398,210.175 44.939,206.901 44.939 C 205.639 44.939,205.560 44.966,203.856 45.979 C 203.448 46.222,203.014 46.461,202.892 46.510 C 202.770 46.559,202.269 46.787,201.780 47.016 C 197.220 49.151,189.643 49.483,184.821 47.760 C 182.797 47.037,181.372 46.440,181.090 46.196 C 180.664 45.829,177.896 44.509,177.234 44.357 C 176.462 44.181,175.740 44.182,174.490 44.361 M110.927 85.276 C 109.479 85.546,107.399 86.344,106.693 86.899 C 106.477 87.069,106.249 87.208,106.187 87.208 C 105.891 87.208,103.736 89.214,103.080 90.100 C 101.091 92.788,100.314 95.456,100.449 99.139 C 100.542 101.678,100.930 103.188,101.928 104.884 C 102.152 105.265,102.336 105.615,102.336 105.661 C 102.336 105.831,103.739 107.581,104.427 108.269 C 105.456 109.298,108.131 111.235,108.524 111.235 C 108.571 111.235,108.975 111.407,109.421 111.618 C 114.607 114.072,121.827 112.818,125.555 108.817 C 126.659 107.632,127.401 106.703,127.401 106.505 C 127.401 106.422,127.601 106.014,127.846 105.599 C 128.090 105.184,128.292 104.764,128.293 104.665 C 128.294 104.567,128.474 103.953,128.694 103.300 C 129.975 99.500,128.897 94.618,125.878 90.543 C 124.864 89.174,121.218 86.322,120.478 86.317 C 120.411 86.317,119.855 86.124,119.244 85.887 C 116.942 84.999,113.694 84.760,110.927 85.276 M92.325 96.897 C 91.998 97.074,91.240 97.519,90.639 97.887 C 89.182 98.777,89.220 98.753,87.962 99.596 C 87.357 100.002,86.757 100.400,86.628 100.482 C 86.499 100.564,86.079 100.864,85.695 101.149 C 85.311 101.435,84.777 101.820,84.508 102.006 C 81.522 104.068,77.354 107.401,74.913 109.677 C 73.257 111.221,68.115 116.390,67.334 117.297 C 66.885 117.817,66.337 118.451,66.116 118.706 C 65.616 119.282,64.613 120.492,64.092 121.145 C 63.877 121.415,63.517 121.842,63.293 122.094 C 63.068 122.345,62.885 122.605,62.885 122.671 C 62.885 122.737,62.764 122.911,62.617 123.057 C 62.470 123.203,62.120 123.623,61.840 123.990 C 61.559 124.357,61.276 124.724,61.210 124.805 C 60.785 125.334,59.771 126.739,59.192 127.605 C 58.817 128.166,58.409 128.772,58.287 128.952 C 58.165 129.132,57.843 129.641,57.573 130.083 C 57.302 130.525,56.876 131.220,56.625 131.628 C 55.540 133.393,52.058 140.230,52.058 140.596 C 52.058 140.687,51.913 141.042,51.736 141.385 C 51.411 142.018,51.174 142.631,50.123 145.569 C 49.452 147.445,49.434 147.650,49.825 148.928 C 51.949 155.882,51.540 162.257,48.618 167.742 C 48.292 168.354,47.931 168.960,47.817 169.088 C 47.702 169.217,47.608 169.369,47.608 169.427 C 47.608 169.618,45.945 171.512,44.855 172.562 L 43.777 173.600 43.600 177.059 C 43.503 178.961,43.469 181.397,43.524 182.472 C 43.718 186.252,44.047 190.019,44.332 191.738 C 44.491 192.693,44.662 193.841,44.713 194.290 C 45.025 197.015,46.951 205.354,47.986 208.454 C 48.177 209.025,48.397 209.759,48.476 210.085 C 48.555 210.412,48.932 211.546,49.313 212.607 C 49.694 213.667,50.127 214.902,50.276 215.350 C 50.424 215.799,50.682 216.500,50.849 216.908 C 51.016 217.316,51.395 218.283,51.693 219.058 C 51.991 219.833,52.395 220.813,52.591 221.237 C 52.787 221.660,52.948 222.042,52.948 222.085 C 52.948 222.163,53.291 222.941,54.166 224.842 C 54.926 226.494,56.911 230.481,57.786 232.110 C 58.246 232.966,58.795 234.001,59.007 234.409 C 59.219 234.816,59.435 235.184,59.487 235.224 C 59.539 235.265,59.733 235.597,59.918 235.961 C 60.103 236.326,60.370 236.793,60.512 237.000 C 60.654 237.206,60.947 237.675,61.162 238.042 C 61.669 238.904,61.809 239.135,62.428 240.119 C 62.710 240.567,63.083 241.168,63.258 241.453 C 63.932 242.555,64.811 243.914,65.033 244.197 C 65.456 244.737,66.282 245.972,66.423 246.274 C 66.499 246.437,66.735 246.732,66.948 246.930 C 67.160 247.128,67.334 247.344,67.334 247.410 C 67.334 247.477,67.651 247.939,68.039 248.437 C 68.426 248.935,68.841 249.487,68.960 249.662 C 69.079 249.838,69.365 250.215,69.595 250.501 C 69.826 250.786,70.062 251.086,70.121 251.168 C 70.651 251.903,71.996 253.577,72.698 254.377 C 73.174 254.918,73.563 255.408,73.563 255.466 C 73.563 255.525,73.747 255.761,73.971 255.991 C 74.567 256.602,74.876 256.946,76.242 258.509 C 81.498 264.528,89.395 271.839,96.176 276.965 C 98.903 279.027,98.645 278.988,100.667 277.649 C 101.589 277.039,101.600 276.976,100.927 276.095 C 100.641 275.721,100.408 275.357,100.408 275.286 C 100.408 275.215,100.309 275.075,100.188 274.974 C 100.067 274.874,99.758 274.415,99.502 273.955 C 99.245 273.495,98.865 272.818,98.657 272.451 C 97.279 270.020,96.954 269.405,95.475 266.444 C 94.114 263.717,92.754 260.763,92.403 259.770 C 92.258 259.362,91.968 258.628,91.758 258.139 C 91.110 256.630,89.850 253.011,89.151 250.649 C 87.437 244.858,86.984 243.028,86.693 240.712 C 86.414 238.493,86.022 236.941,85.604 236.397 C 85.453 236.201,85.227 235.840,85.102 235.595 C 84.623 234.655,84.036 233.655,83.797 233.370 C 83.660 233.207,83.232 232.540,82.846 231.887 C 82.460 231.235,81.885 230.300,81.567 229.811 C 81.249 229.321,80.907 228.754,80.807 228.550 C 80.707 228.346,80.546 228.079,80.450 227.957 C 79.500 226.746,75.424 218.716,74.052 215.350 C 73.935 215.065,73.782 214.698,73.711 214.535 C 73.320 213.634,72.525 211.559,72.525 211.440 C 72.525 211.364,72.332 210.761,72.096 210.100 C 67.997 198.615,66.096 182.306,67.641 171.895 C 67.805 170.793,68.003 169.305,68.081 168.587 C 68.159 167.870,68.327 166.802,68.453 166.214 C 68.580 165.627,68.785 164.613,68.909 163.960 C 69.564 160.514,71.735 153.930,73.677 149.499 C 74.167 148.381,75.362 145.854,75.501 145.643 C 75.581 145.521,75.805 145.087,75.997 144.679 C 76.190 144.271,76.665 143.404,77.054 142.751 C 77.442 142.099,77.925 141.264,78.128 140.897 C 78.330 140.530,78.587 140.125,78.699 139.996 C 78.811 139.867,78.902 139.706,78.902 139.638 C 78.902 139.507,81.721 135.308,82.509 134.266 C 83.752 132.623,85.171 130.829,85.652 130.293 C 85.945 129.967,86.565 129.277,87.030 128.761 C 88.005 127.679,91.525 124.151,92.356 123.423 C 93.816 122.144,93.996 121.995,96.073 120.359 C 96.747 119.827,97.357 119.392,97.427 119.392 C 97.496 119.392,97.644 119.283,97.755 119.149 C 97.866 119.016,98.191 118.754,98.478 118.567 C 98.764 118.380,99.366 117.959,99.815 117.632 C 100.263 117.305,100.966 116.840,101.377 116.600 C 102.662 115.847,102.662 115.849,101.262 114.670 C 100.582 114.097,99.666 113.207,99.227 112.691 C 98.788 112.176,98.308 111.620,98.161 111.457 C 97.214 110.405,95.958 108.551,95.958 108.205 C 95.958 108.087,95.884 107.943,95.793 107.887 C 95.439 107.669,94.319 104.890,93.643 102.558 C 93.394 101.697,92.990 97.522,93.100 96.944 C 93.189 96.478,93.105 96.473,92.325 96.897 M183.166 97.092 C 182.040 97.196,178.451 97.578,176.402 97.811 C 175.333 97.933,173.798 98.169,172.991 98.336 C 172.184 98.503,171.190 98.698,170.782 98.770 C 167.048 99.426,159.551 102.187,157.063 103.821 C 156.859 103.955,156.292 104.326,155.803 104.645 C 147.859 109.828,146.377 119.325,152.243 127.449 C 153.358 128.993,154.636 130.649,154.967 130.979 C 155.182 131.193,155.666 131.694,156.042 132.091 C 157.640 133.780,160.685 136.448,161.015 136.448 C 161.152 136.448,161.413 135.644,161.594 134.668 C 161.743 133.861,162.552 131.975,163.255 130.792 C 164.472 128.744,165.558 127.574,167.816 125.880 C 169.761 124.420,174.030 122.552,176.492 122.083 C 176.941 121.997,177.942 121.789,178.717 121.621 C 184.111 120.448,197.069 120.630,200.480 121.927 C 200.675 122.001,201.048 122.062,201.307 122.062 C 201.567 122.062,202.481 122.233,203.337 122.441 C 204.194 122.650,205.328 122.907,205.858 123.013 C 207.354 123.312,211.315 124.460,213.348 125.183 C 214.001 125.416,214.702 125.649,214.905 125.702 C 215.109 125.755,215.622 125.959,216.046 126.155 C 216.469 126.351,216.872 126.511,216.942 126.511 C 217.260 126.511,222.457 128.799,223.690 129.482 C 223.831 129.560,224.665 130.001,225.544 130.462 C 226.422 130.923,227.241 131.382,227.364 131.483 C 227.486 131.584,227.820 131.782,228.105 131.925 C 228.879 132.310,234.102 135.813,234.410 136.153 C 234.557 136.315,234.734 136.448,234.804 136.448 C 234.964 136.448,237.730 138.540,238.821 139.486 C 238.964 139.610,239.118 139.711,239.163 139.711 C 239.209 139.711,239.493 139.937,239.794 140.214 C 240.095 140.491,240.842 141.167,241.453 141.718 C 242.065 142.268,242.988 143.109,243.503 143.588 C 244.019 144.066,244.455 144.457,244.472 144.457 C 244.535 144.457,248.218 140.933,250.053 139.118 C 251.894 137.296,254.822 134.491,258.305 131.212 C 259.274 130.300,260.521 129.118,261.077 128.586 L 262.088 127.618 260.781 126.342 C 258.971 124.576,257.575 123.274,257.237 123.037 C 257.080 122.928,256.685 122.593,256.359 122.294 C 256.033 121.995,255.311 121.404,254.753 120.979 C 254.196 120.555,253.313 119.857,252.792 119.429 C 252.271 119.001,251.812 118.650,251.774 118.650 C 251.683 118.650,249.789 117.218,249.507 116.936 C 249.389 116.819,249.236 116.722,249.166 116.722 C 249.096 116.722,248.950 116.635,248.843 116.528 C 248.512 116.200,244.971 113.791,243.678 113.015 C 243.393 112.843,242.792 112.475,242.343 112.196 C 241.895 111.917,241.361 111.605,241.157 111.502 C 240.953 111.399,240.526 111.130,240.208 110.904 C 239.889 110.678,239.548 110.493,239.449 110.493 C 239.350 110.493,239.091 110.353,238.873 110.182 C 238.409 109.817,231.480 106.330,229.875 105.654 C 229.269 105.398,228.372 105.020,227.883 104.812 C 227.393 104.605,226.593 104.289,226.103 104.110 C 223.776 103.261,221.870 102.593,221.060 102.342 C 220.571 102.191,219.870 101.966,219.503 101.841 C 214.772 100.237,205.552 98.307,199.926 97.743 C 199.069 97.657,197.367 97.482,196.144 97.355 C 194.020 97.135,184.735 96.946,183.166 97.092 M278.606 100.022 C 278.524 100.053,277.890 100.195,277.197 100.339 C 274.291 100.942,270.899 103.120,269.384 105.354 C 269.154 105.693,268.929 106.003,268.884 106.044 C 268.714 106.196,267.847 107.980,267.644 108.594 C 265.759 114.294,267.025 119.554,271.264 123.634 C 273.595 125.877,276.077 127.116,279.688 127.837 C 281.674 128.234,285.923 127.785,287.247 127.038 C 287.470 126.912,287.953 126.676,288.320 126.514 C 288.687 126.351,289.105 126.134,289.249 126.031 C 289.518 125.838,290.230 126.466,290.243 126.907 C 290.246 127.003,290.415 127.280,290.619 127.522 C 290.823 127.764,290.990 128.007,290.990 128.062 C 290.990 128.116,291.413 128.809,291.931 129.601 C 292.449 130.394,292.958 131.203,293.063 131.400 C 293.169 131.596,293.379 131.891,293.531 132.054 C 293.683 132.217,293.808 132.410,293.808 132.481 C 293.808 132.553,293.967 132.824,294.162 133.084 C 294.356 133.343,294.673 133.848,294.866 134.206 C 295.059 134.563,295.311 135.030,295.426 135.244 C 295.541 135.457,295.804 135.899,296.011 136.225 C 296.401 136.841,296.954 137.830,297.340 138.598 C 297.462 138.843,297.677 139.210,297.816 139.414 C 297.956 139.618,298.120 139.952,298.181 140.156 C 298.242 140.360,298.378 140.627,298.483 140.749 C 298.689 140.990,300.651 145.263,301.275 146.830 C 302.306 149.422,303.332 153.205,303.606 155.432 C 303.692 156.125,303.821 156.960,303.893 157.286 C 303.966 157.612,304.072 158.480,304.129 159.214 C 304.256 160.844,304.203 160.762,306.709 163.273 C 308.528 165.098,311.165 168.007,312.472 169.633 C 312.745 169.972,313.128 170.436,313.324 170.664 C 313.991 171.441,314.294 171.820,315.314 173.155 C 315.875 173.890,316.505 174.700,316.714 174.955 C 316.922 175.211,317.093 175.487,317.093 175.568 C 317.093 175.648,317.200 175.803,317.331 175.912 C 317.558 176.100,317.841 176.501,319.157 178.495 C 319.480 178.984,319.951 179.668,320.203 180.015 C 320.455 180.361,320.704 180.762,320.756 180.905 C 320.808 181.047,321.040 181.443,321.271 181.784 C 321.502 182.125,321.691 182.449,321.691 182.503 C 321.691 182.557,321.815 182.779,321.968 182.995 C 322.120 183.212,322.665 184.190,323.177 185.169 C 324.411 187.523,324.465 187.629,324.648 188.061 C 324.734 188.265,324.869 188.532,324.947 188.654 C 325.157 188.983,326.025 190.912,326.649 192.436 C 326.950 193.170,327.322 194.071,327.476 194.438 C 328.115 195.961,328.810 197.775,328.809 197.918 C 328.809 198.003,329.001 198.572,329.238 199.184 C 329.474 199.796,329.870 200.964,330.118 201.780 C 330.367 202.595,330.754 203.861,330.979 204.593 C 331.204 205.324,331.437 206.192,331.497 206.521 C 331.557 206.850,331.773 207.786,331.978 208.602 C 333.557 214.895,334.234 220.772,334.097 226.993 C 334.018 230.585,333.667 235.842,333.470 236.403 C 333.428 236.521,333.328 237.316,333.247 238.169 C 332.787 243.024,329.649 254.906,328.061 257.803 C 327.983 257.945,327.920 258.152,327.920 258.263 C 327.920 258.374,327.761 258.763,327.568 259.128 C 327.374 259.492,327.166 259.952,327.106 260.151 C 326.737 261.361,323.040 268.735,321.691 270.952 C 321.324 271.555,320.885 272.289,320.717 272.584 C 320.548 272.878,320.148 273.509,319.827 273.986 C 319.506 274.463,319.105 275.081,318.936 275.359 C 318.767 275.637,318.494 276.018,318.330 276.207 C 318.165 276.396,317.906 276.763,317.753 277.022 C 317.599 277.281,317.426 277.494,317.368 277.494 C 317.309 277.494,317.221 277.619,317.173 277.773 C 317.124 277.927,316.903 278.254,316.681 278.501 C 316.459 278.748,315.910 279.422,315.462 280.000 C 315.013 280.577,314.601 281.051,314.546 281.052 C 314.490 281.052,314.424 281.150,314.397 281.269 C 314.270 281.844,307.533 288.656,305.297 290.471 C 304.996 290.716,304.168 291.416,303.456 292.028 C 300.784 294.328,299.454 295.439,299.375 295.439 C 299.330 295.439,299.110 295.602,298.886 295.801 C 298.134 296.469,294.449 298.999,294.227 298.999 C 294.152 298.999,293.893 299.101,293.652 299.225 C 293.224 299.446,293.062 299.740,293.369 299.740 C 293.558 299.740,295.842 301.419,296.838 302.290 C 301.020 305.948,303.460 310.011,304.791 315.536 C 305.066 316.678,305.303 317.633,305.319 317.659 C 305.352 317.715,308.623 315.755,309.145 315.366 C 309.347 315.214,309.855 314.857,310.273 314.572 C 310.691 314.286,311.312 313.833,311.653 313.566 C 311.994 313.298,312.406 312.979,312.570 312.858 C 314.136 311.695,315.111 310.920,315.209 310.760 C 315.275 310.654,315.394 310.567,315.475 310.567 C 315.618 310.567,316.999 309.425,319.600 307.156 C 320.672 306.221,324.459 302.613,325.009 302.002 C 325.101 301.900,325.710 301.263,326.363 300.587 C 327.921 298.973,329.854 296.849,330.442 296.107 C 330.700 295.780,331.023 295.404,331.158 295.270 C 331.745 294.693,335.389 290.132,335.855 289.393 C 335.936 289.263,336.167 288.966,336.366 288.733 C 336.566 288.500,336.867 288.084,337.034 287.809 C 337.201 287.534,337.932 286.419,338.657 285.331 C 340.698 282.271,341.268 281.391,341.268 281.300 C 341.268 281.254,341.466 280.923,341.708 280.565 C 341.950 280.206,342.218 279.752,342.303 279.556 C 342.388 279.360,342.580 278.999,342.728 278.754 C 342.980 278.339,344.282 276.007,344.632 275.343 C 344.718 275.180,344.934 274.779,345.112 274.453 C 345.290 274.127,345.557 273.593,345.705 273.267 C 345.854 272.940,346.318 271.956,346.736 271.079 C 347.155 270.203,347.497 269.453,347.497 269.414 C 347.497 269.376,347.697 268.907,347.942 268.372 C 348.187 267.838,348.387 267.319,348.388 267.219 C 348.388 267.119,348.588 266.637,348.832 266.148 C 349.076 265.658,349.276 265.174,349.276 265.071 C 349.277 264.968,349.406 264.601,349.565 264.255 C 349.954 263.404,351.205 260.013,351.205 259.808 C 351.205 259.717,351.393 259.105,351.624 258.446 C 354.221 251.017,356.021 242.219,356.846 232.925 C 357.294 227.875,357.298 226.738,356.870 226.302 C 356.055 225.475,353.875 222.526,353.875 222.252 C 353.875 222.181,353.783 222.017,353.670 221.888 C 353.359 221.531,352.308 219.503,352.096 218.848 C 351.992 218.528,351.788 218.061,351.641 217.810 C 351.495 217.558,351.274 216.986,351.149 216.537 C 351.025 216.088,350.789 215.267,350.626 214.713 C 349.343 210.348,349.948 204.050,352.052 199.858 C 352.803 198.363,352.804 198.340,352.189 196.218 C 351.681 194.467,349.941 189.654,349.523 188.847 C 349.388 188.586,349.277 188.249,349.277 188.098 C 349.277 187.947,349.219 187.760,349.147 187.683 C 349.076 187.605,348.835 187.075,348.611 186.504 C 348.388 185.933,348.119 185.298,348.014 185.095 C 347.908 184.891,347.045 183.155,346.096 181.238 C 345.147 179.321,344.145 177.353,343.869 176.863 C 343.594 176.374,343.294 175.813,343.203 175.616 C 343.112 175.420,342.840 174.966,342.598 174.608 C 342.356 174.249,342.158 173.920,342.158 173.875 C 342.158 173.761,341.123 172.063,340.716 171.510 C 340.530 171.258,340.378 171.014,340.378 170.969 C 340.378 170.890,339.681 169.790,339.038 168.854 C 338.870 168.610,338.419 167.933,338.035 167.351 C 336.914 165.649,335.764 164.000,335.311 163.444 C 335.080 163.160,334.891 162.843,334.891 162.740 C 334.891 162.636,334.841 162.551,334.779 162.550 C 334.684 162.549,333.869 161.527,332.369 159.527 C 331.659 158.579,329.486 155.948,329.109 155.580 C 328.901 155.376,328.112 154.495,327.357 153.623 C 326.602 152.750,325.802 151.842,325.580 151.606 C 325.358 151.369,324.442 150.388,323.545 149.426 C 320.929 146.622,317.408 143.163,315.091 141.120 C 314.443 140.549,313.695 139.881,313.429 139.637 C 313.162 139.392,312.741 139.025,312.493 138.821 C 312.245 138.617,311.894 138.317,311.713 138.154 C 310.350 136.925,304.964 132.731,303.713 131.924 C 303.586 131.843,303.024 131.458,302.464 131.069 C 301.499 130.400,300.147 129.518,298.999 128.810 C 298.713 128.633,298.179 128.295,297.812 128.057 C 297.445 127.820,296.978 127.543,296.774 127.442 C 296.570 127.341,295.970 126.994,295.439 126.669 C 294.909 126.345,294.242 125.954,293.956 125.801 C 292.351 124.940,291.644 124.543,291.537 124.441 C 291.424 124.334,291.741 123.825,292.785 122.432 C 295.256 119.138,295.855 112.852,294.056 109.083 C 293.861 108.676,293.676 108.276,293.644 108.194 C 293.054 106.695,289.310 102.484,288.567 102.484 C 288.521 102.484,288.187 102.284,287.824 102.039 C 287.462 101.795,287.119 101.594,287.062 101.594 C 287.006 101.594,286.528 101.395,286.002 101.151 C 284.407 100.413,279.544 99.671,278.606 100.022 M146.681 105.201 C 145.953 105.581,144.821 106.254,144.457 106.523 C 143.816 106.996,142.504 107.824,142.393 107.824 C 142.335 107.824,142.096 108.024,141.861 108.268 C 141.627 108.513,141.382 108.713,141.318 108.713 C 141.196 108.713,139.014 110.431,138.376 111.030 C 136.337 112.943,135.069 114.296,134.033 115.665 C 133.639 116.186,133.220 116.708,133.102 116.826 C 132.985 116.944,132.888 117.097,132.888 117.167 C 132.888 117.237,132.803 117.383,132.699 117.490 C 132.517 117.680,131.429 119.444,130.934 120.356 C 130.696 120.793,130.622 120.939,129.884 122.432 C 128.412 125.410,127.434 130.411,127.593 134.149 C 127.672 136.007,128.413 140.441,128.742 141.024 C 128.818 141.158,129.020 141.702,129.192 142.232 C 129.363 142.762,129.665 143.549,129.861 143.979 C 130.058 144.410,130.219 144.826,130.219 144.904 C 130.219 144.982,130.419 145.371,130.664 145.769 C 130.908 146.166,131.109 146.541,131.109 146.601 C 131.109 146.741,132.020 148.271,132.791 149.425 C 133.969 151.188,134.219 151.536,134.442 151.721 C 134.566 151.824,134.668 151.990,134.668 152.089 C 134.668 152.187,134.852 152.442,135.076 152.653 C 135.300 152.865,135.712 153.337,135.992 153.703 C 136.579 154.471,140.081 157.945,141.475 159.141 C 141.997 159.589,142.576 160.092,142.762 160.259 C 142.948 160.426,143.378 160.793,143.717 161.074 C 144.057 161.356,144.412 161.657,144.507 161.743 C 144.726 161.942,147.020 163.716,147.566 164.108 C 147.793 164.271,148.395 164.705,148.905 165.072 C 149.414 165.439,149.959 165.814,150.116 165.904 C 150.272 165.995,150.548 166.202,150.729 166.363 C 151.128 166.722,154.828 169.205,155.877 169.818 C 156.162 169.985,156.796 170.387,157.286 170.711 C 157.775 171.035,158.343 171.382,158.547 171.483 C 158.750 171.584,159.178 171.851,159.496 172.077 C 159.814 172.303,160.156 172.488,160.256 172.488 C 160.356 172.488,160.526 172.594,160.633 172.723 C 160.741 172.853,161.110 173.090,161.453 173.252 C 161.797 173.413,162.194 173.675,162.337 173.832 C 162.480 173.990,162.716 174.119,162.862 174.119 C 163.008 174.119,163.165 174.181,163.211 174.255 C 163.286 174.378,165.525 175.739,165.888 175.884 C 165.970 175.917,166.303 176.120,166.630 176.335 C 166.956 176.551,167.390 176.810,167.594 176.911 C 167.798 177.012,168.331 177.323,168.780 177.602 C 169.229 177.881,169.963 178.312,170.412 178.560 C 170.860 178.808,171.561 179.214,171.969 179.463 C 172.377 179.712,173.011 180.055,173.378 180.225 C 173.745 180.394,174.145 180.618,174.268 180.721 C 174.390 180.824,175.224 181.293,176.122 181.763 C 178.923 183.230,179.496 183.533,180.793 184.229 C 181.487 184.601,182.722 185.257,183.537 185.686 C 184.353 186.115,185.084 186.525,185.161 186.596 C 185.239 186.668,185.386 186.726,185.488 186.726 C 185.590 186.726,185.960 186.918,186.311 187.152 C 186.661 187.387,187.115 187.628,187.319 187.689 C 187.523 187.750,187.790 187.881,187.912 187.980 C 188.035 188.080,188.602 188.396,189.173 188.682 C 190.152 189.173,191.052 189.642,194.957 191.699 C 195.855 192.171,196.622 192.600,196.663 192.651 C 196.704 192.703,197.121 192.937,197.590 193.171 C 198.059 193.405,198.443 193.653,198.443 193.721 C 198.443 194.014,199.051 193.810,199.292 193.437 C 199.437 193.213,199.689 192.867,199.852 192.668 C 200.371 192.035,211.229 181.218,212.739 179.829 C 214.535 178.177,215.672 177.137,216.530 176.360 C 216.893 176.031,217.160 175.735,217.123 175.701 C 217.086 175.668,216.622 175.409,216.092 175.126 C 214.459 174.255,211.639 172.727,211.070 172.404 C 210.051 171.827,208.454 170.957,208.009 170.737 C 207.764 170.616,207.464 170.434,207.341 170.334 C 207.219 170.234,206.418 169.783,205.562 169.332 C 204.705 168.882,203.461 168.211,202.797 167.841 C 201.644 167.199,200.135 166.400,196.885 164.709 C 194.931 163.692,193.248 162.790,190.330 161.195 C 189.008 160.472,187.889 159.881,187.843 159.881 C 187.796 159.881,187.476 159.701,187.131 159.480 C 186.786 159.260,186.303 158.971,186.059 158.840 C 185.116 158.332,183.946 157.669,183.092 157.159 C 182.603 156.866,182.036 156.544,181.832 156.443 C 181.628 156.341,181.194 156.092,180.868 155.889 C 180.541 155.686,180.074 155.408,179.829 155.272 C 179.250 154.949,177.928 154.205,177.086 153.728 C 176.719 153.520,176.112 153.168,175.737 152.945 C 175.362 152.722,174.728 152.346,174.328 152.110 C 173.662 151.716,172.845 151.200,171.442 150.287 C 171.152 150.099,170.861 149.944,170.796 149.944 C 170.730 149.944,170.424 149.744,170.115 149.499 C 169.806 149.255,169.515 149.055,169.468 149.055 C 169.395 149.055,167.604 147.901,166.407 147.084 C 165.656 146.572,163.103 144.821,162.792 144.605 C 162.615 144.483,162.080 144.082,161.602 143.715 C 160.595 142.942,160.093 142.571,159.494 142.160 C 157.262 140.624,152.119 135.886,150.389 133.771 C 150.104 133.422,149.770 133.030,149.648 132.901 C 148.956 132.170,146.847 129.207,146.208 128.068 C 145.603 126.991,144.457 124.624,144.457 124.453 C 144.457 124.372,144.292 123.918,144.090 123.443 C 143.888 122.969,143.615 122.080,143.484 121.468 C 142.583 117.259,142.586 116.885,143.568 112.197 C 143.801 111.089,145.258 107.849,145.867 107.089 C 146.034 106.881,146.263 106.528,146.377 106.303 C 146.490 106.079,146.637 105.895,146.703 105.895 C 146.768 105.895,146.926 105.695,147.052 105.451 C 147.306 104.960,147.235 104.912,146.681 105.201 M23.359 138.385 C 21.523 138.633,17.442 140.180,16.898 140.834 C 16.802 140.951,16.641 141.046,16.542 141.046 C 16.442 141.046,16.233 141.186,16.078 141.357 C 15.923 141.529,15.629 141.756,15.425 141.862 C 14.127 142.538,11.417 145.959,10.466 148.122 C 9.611 150.067,8.901 154.153,9.123 155.856 C 9.992 162.523,13.523 168.004,18.732 170.774 C 19.081 170.960,19.497 171.183,19.657 171.270 C 20.376 171.664,22.321 172.360,23.311 172.580 C 25.815 173.135,26.394 173.219,27.752 173.224 C 29.828 173.232,33.167 172.592,34.621 171.908 C 36.897 170.836,37.322 170.599,38.325 169.842 C 44.951 164.839,46.534 156.220,42.321 148.090 C 42.025 147.519,41.625 146.840,41.433 146.580 C 41.240 146.320,41.083 146.063,41.083 146.007 C 41.083 145.653,37.911 142.409,36.876 141.705 C 32.697 138.861,28.138 137.741,23.359 138.385 M259.103 161.005 C 258.083 161.117,256.948 161.274,256.581 161.354 C 256.214 161.434,255.614 161.540,255.247 161.589 C 254.480 161.693,254.104 161.815,252.614 162.446 C 252.023 162.696,251.539 162.954,251.539 163.019 C 251.539 163.084,251.336 163.241,251.089 163.369 C 250.521 163.663,250.559 163.717,252.030 164.699 C 253.482 165.668,255.247 167.285,255.247 167.644 C 255.247 167.880,255.102 167.894,253.541 167.800 L 251.835 167.698 251.835 168.131 C 251.835 168.476,251.989 168.683,252.598 169.154 C 253.018 169.479,253.577 169.928,253.841 170.152 C 254.106 170.376,254.381 170.560,254.454 170.560 C 254.527 170.560,254.802 170.756,255.065 170.996 C 255.842 171.706,256.789 172.150,257.890 172.323 C 258.529 172.424,258.798 172.563,259.304 173.061 C 259.648 173.398,260.044 173.674,260.184 173.674 C 260.323 173.674,260.438 173.741,260.438 173.823 C 260.438 174.171,261.087 173.926,261.630 173.372 C 261.953 173.042,262.217 172.737,262.217 172.694 C 262.217 172.651,262.418 172.325,262.662 171.969 C 262.907 171.613,263.107 171.244,263.107 171.149 C 263.107 171.054,263.199 170.799,263.312 170.583 C 263.424 170.366,263.587 170.022,263.674 169.818 C 264.515 167.844,264.855 167.297,265.242 167.297 C 265.498 167.297,265.458 168.516,265.183 169.077 C 265.123 169.199,265.026 169.566,264.967 169.892 C 264.908 170.219,264.808 170.552,264.745 170.634 C 264.682 170.716,264.483 171.183,264.305 171.672 C 264.126 172.162,263.826 172.797,263.638 173.084 C 261.889 175.758,263.037 179.091,266.198 180.517 C 267.689 181.190,267.736 181.143,267.327 179.378 C 266.868 177.399,267.185 176.823,268.426 177.386 C 268.781 177.547,269.197 177.679,269.351 177.679 C 269.504 177.679,270.248 177.872,271.003 178.109 C 271.759 178.345,272.577 178.584,272.822 178.639 C 274.494 179.019,278.680 181.822,278.680 182.562 C 278.680 182.625,278.810 182.826,278.969 183.010 C 280.593 184.881,279.840 190.768,277.878 191.553 C 277.530 191.692,276.233 191.873,274.686 191.999 C 270.984 192.300,269.603 192.633,268.233 193.557 C 267.075 194.339,267.012 194.629,267.963 194.803 C 268.270 194.860,268.988 195.058,269.559 195.245 C 270.130 195.432,270.897 195.675,271.264 195.786 C 273.110 196.343,273.799 197.039,274.701 199.258 C 274.867 199.666,275.158 200.367,275.348 200.816 C 275.835 201.969,276.356 204.313,276.259 204.912 C 276.203 205.256,276.235 205.413,276.361 205.413 C 276.584 205.413,277.494 204.500,277.494 204.277 C 277.494 204.190,277.634 203.940,277.806 203.721 C 278.236 203.174,278.893 201.768,279.094 200.964 C 279.525 199.237,280.163 196.201,280.163 195.878 C 280.163 195.457,280.722 194.372,281.832 192.638 C 283.406 190.179,284.292 188.285,284.903 186.072 C 285.081 185.427,285.389 184.661,285.587 184.369 C 286.597 182.883,285.440 176.607,283.251 171.699 C 282.614 170.271,282.612 169.758,283.241 169.698 C 283.897 169.634,283.854 169.372,283.055 168.550 C 282.297 167.770,282.223 167.420,282.763 167.174 C 283.160 166.993,283.119 166.830,282.460 165.962 C 281.928 165.262,281.927 164.051,282.456 162.813 C 282.948 161.663,275.952 161.582,273.888 162.714 C 273.607 162.868,273.548 162.855,271.635 162.199 C 270.612 161.848,267.509 161.197,265.628 160.938 C 264.208 160.743,261.215 160.774,259.103 161.005 M259.360 163.413 C 259.763 163.670,259.752 164.436,259.339 164.850 C 258.821 165.368,258.247 165.307,257.891 164.696 C 257.385 163.826,258.491 162.861,259.360 163.413 M233.028 167.466 C 232.676 167.715,232.308 167.931,232.210 167.945 C 232.112 167.960,231.866 168.090,231.663 168.235 C 230.883 168.792,229.280 169.818,229.191 169.818 C 229.140 169.818,228.858 170.002,228.567 170.226 C 228.275 170.451,227.924 170.701,227.786 170.782 C 227.513 170.945,224.969 172.767,224.116 173.411 C 223.822 173.633,223.415 173.928,223.211 174.068 C 223.007 174.207,222.773 174.393,222.692 174.480 C 222.610 174.567,222.277 174.838,221.950 175.081 C 219.336 177.031,214.277 181.470,209.649 185.876 C 206.997 188.401,201.981 193.501,200.148 195.536 C 199.109 196.690,197.013 198.979,196.943 199.036 C 196.893 199.077,196.375 199.677,195.792 200.371 C 195.209 201.064,194.606 201.765,194.452 201.928 C 194.140 202.260,193.328 203.219,192.436 204.307 C 192.110 204.706,191.576 205.336,191.250 205.709 C 190.923 206.082,190.423 206.677,190.137 207.033 C 189.852 207.388,189.166 208.220,188.614 208.882 C 188.061 209.544,187.535 210.176,187.444 210.286 C 187.097 210.707,185.834 212.334,185.436 212.872 C 185.208 213.182,184.915 213.549,184.786 213.688 C 184.388 214.117,182.557 216.858,182.410 217.243 C 182.292 217.555,182.238 217.579,182.037 217.413 C 181.820 217.233,180.349 215.088,180.349 214.953 C 180.349 214.813,178.793 213.013,178.295 212.576 C 177.719 212.071,176.116 211.224,175.009 210.839 C 173.959 210.475,173.477 209.946,173.594 209.288 C 173.647 208.992,173.727 207.883,173.772 206.822 C 173.863 204.688,173.868 204.678,174.861 204.674 C 175.540 204.672,176.801 204.274,177.110 203.965 C 177.504 203.571,176.359 203.096,174.787 203.002 C 174.207 202.967,174.179 202.939,173.561 201.784 C 171.331 197.620,166.258 197.704,164.920 201.928 C 164.705 202.607,164.560 202.738,164.015 202.742 C 162.955 202.748,161.809 203.708,161.809 204.591 C 161.809 205.336,162.027 205.426,163.556 205.318 L 164.901 205.222 165.049 205.800 C 165.130 206.118,165.238 206.585,165.290 206.839 C 165.341 207.092,165.614 207.658,165.896 208.096 C 166.529 209.078,166.523 209.096,165.437 209.432 C 164.951 209.582,164.420 209.765,164.257 209.839 C 163.212 210.310,161.529 211.155,161.210 211.367 C 161.003 211.505,160.436 211.835,159.950 212.100 C 159.463 212.365,159.032 212.620,158.991 212.668 C 158.539 213.198,155.385 214.164,154.107 214.164 C 152.592 214.164,148.613 212.320,145.361 210.110 C 143.680 208.968,142.660 208.860,141.434 209.695 C 141.098 209.924,140.556 210.278,140.230 210.481 C 139.019 211.235,137.421 212.300,137.164 212.524 C 137.019 212.651,136.660 212.955,136.368 213.200 C 135.606 213.838,130.608 218.519,129.477 219.653 C 128.259 220.876,126.411 222.281,124.064 223.770 C 123.457 224.155,121.216 225.180,120.356 225.466 C 119.867 225.628,119.399 225.813,119.318 225.876 C 119.236 225.939,118.936 226.058,118.650 226.140 C 115.737 226.983,111.865 228.225,111.161 228.541 C 110.834 228.688,110.400 228.859,110.197 228.921 C 109.136 229.244,106.333 230.891,104.561 232.233 C 102.567 233.743,100.348 236.354,99.633 238.033 C 99.475 238.405,99.250 238.921,99.134 239.178 C 98.609 240.347,98.116 243.972,98.454 244.181 C 98.561 244.248,98.765 243.567,99.539 240.564 C 99.997 238.788,102.125 235.368,102.769 235.375 C 103.129 235.380,105.893 238.816,105.895 239.263 C 105.895 239.323,105.478 239.794,104.968 240.310 C 104.459 240.826,103.762 241.562,103.420 241.944 C 102.628 242.831,102.672 242.841,101.683 241.528 C 101.222 240.916,100.753 240.415,100.639 240.415 C 100.525 240.415,100.343 240.393,100.235 240.365 C 100.126 240.338,100.087 240.344,100.149 240.378 C 100.282 240.452,101.107 241.706,101.638 242.640 C 101.847 243.007,102.382 244.275,102.828 245.458 C 103.273 246.641,103.745 247.809,103.876 248.053 C 104.007 248.298,104.114 248.542,104.115 248.594 C 104.116 248.698,105.067 250.305,105.769 251.390 C 107.707 254.383,111.939 257.553,115.684 258.816 C 117.209 259.330,119.911 259.790,122.173 259.921 C 124.763 260.071,124.222 259.603,121.320 259.183 C 115.713 258.372,115.398 258.104,116.405 254.999 C 117.067 252.961,117.217 252.880,118.994 253.603 C 120.850 254.357,121.502 254.396,119.874 253.656 C 117.649 252.644,117.573 252.456,118.799 251.020 C 120.395 249.149,119.767 249.087,117.869 250.928 L 117.013 251.758 116.349 251.405 C 115.983 251.211,115.684 251.002,115.684 250.940 C 115.684 250.877,115.467 250.697,115.202 250.539 C 114.463 250.098,111.828 247.537,111.829 247.260 C 111.830 246.823,113.827 245.013,114.308 245.013 C 114.392 245.013,114.542 244.916,114.640 244.798 C 114.855 244.539,116.353 243.678,116.589 243.678 C 116.681 243.678,117.266 244.174,117.889 244.779 C 118.857 245.720,119.837 246.326,119.837 245.983 C 119.837 245.833,118.976 244.591,118.328 243.806 C 117.511 242.816,117.471 242.874,119.837 241.635 C 121.596 240.714,122.421 240.253,122.573 240.106 C 122.866 239.824,123.202 239.999,124.138 240.924 C 126.314 243.074,126.390 242.298,124.228 239.999 L 123.767 239.509 124.138 239.226 C 124.342 239.070,125.128 238.590,125.886 238.159 C 126.644 237.728,127.578 237.195,127.962 236.976 C 128.887 236.447,128.890 236.448,130.755 237.278 C 131.643 237.674,132.820 238.182,133.370 238.407 C 133.921 238.633,134.372 238.863,134.372 238.920 C 134.372 239.076,133.251 240.173,132.202 241.044 C 131.590 241.553,131.343 241.841,131.491 241.874 C 131.912 241.965,133.009 241.320,134.363 240.184 L 135.708 239.055 137.005 239.218 C 137.718 239.307,139.053 239.435,139.972 239.503 C 141.958 239.650,141.928 239.630,141.427 240.485 C 141.209 240.857,141.071 241.227,141.121 241.307 C 141.171 241.388,141.141 241.453,141.054 241.453 C 140.968 241.453,140.897 241.592,140.897 241.761 C 140.897 242.201,141.489 241.477,141.907 240.525 C 142.283 239.669,142.135 239.717,144.679 239.614 C 147.268 239.509,147.065 239.322,147.193 241.935 L 147.300 244.123 146.776 244.123 C 146.487 244.123,145.564 243.991,144.724 243.829 C 142.322 243.366,140.702 243.207,133.407 242.720 C 129.910 242.486,125.050 243.836,122.882 245.643 C 122.613 245.868,122.352 246.051,122.302 246.051 C 122.121 246.051,121.617 246.649,121.617 246.863 C 121.617 247.360,123.532 248.046,126.404 248.579 C 127.284 248.742,128.474 248.974,129.049 249.095 C 133.976 250.131,150.667 249.866,158.409 248.628 C 159.203 248.501,159.023 248.326,157.329 247.580 C 154.669 246.408,152.389 245.629,149.055 244.753 L 147.497 244.344 147.400 241.452 C 147.298 238.421,147.198 237.633,146.684 235.831 C 146.335 234.607,146.360 234.387,146.858 234.292 C 147.130 234.240,147.106 234.222,146.742 234.206 C 146.221 234.183,145.715 233.140,145.294 231.220 C 145.178 230.690,144.946 229.689,144.779 228.995 C 144.377 227.329,143.877 224.952,143.561 223.211 C 143.420 222.436,143.167 221.068,142.999 220.171 C 142.210 215.968,142.017 213.571,142.467 213.571 C 142.710 213.571,144.493 214.289,145.273 214.701 C 147.947 216.115,148.588 216.464,148.906 216.684 C 149.110 216.824,149.778 217.203,150.389 217.525 C 151.001 217.847,151.789 218.293,152.139 218.516 C 152.490 218.740,152.924 218.989,153.103 219.070 C 153.283 219.151,153.697 219.380,154.023 219.578 C 154.685 219.980,154.408 219.991,158.022 219.413 C 160.519 219.014,161.493 218.967,161.582 219.244 C 161.870 220.129,162.127 227.575,161.876 227.758 C 161.632 227.937,161.630 227.957,161.855 227.957 C 162.292 227.957,162.149 228.951,161.523 230.252 C 160.852 231.649,160.871 231.742,161.915 232.204 L 162.717 232.559 162.634 233.224 C 162.588 233.590,162.516 234.207,162.473 234.594 C 162.389 235.355,161.909 238.086,161.217 241.750 C 160.503 245.525,160.416 246.423,160.652 247.534 L 160.857 248.498 161.592 248.545 C 162.667 248.613,166.039 248.150,166.950 247.809 C 167.765 247.504,168.397 246.582,168.714 245.235 C 168.955 244.209,170.928 240.664,171.430 240.353 C 171.598 240.249,172.226 240.967,172.680 241.783 C 172.860 242.105,173.119 242.570,173.255 242.815 C 174.180 244.483,175.251 245.900,175.652 245.988 C 176.775 246.235,180.608 245.702,181.706 245.147 C 183.319 244.332,183.191 243.287,180.777 237.541 C 180.541 236.980,180.349 236.465,180.349 236.396 C 180.349 236.327,180.187 235.918,179.989 235.486 C 179.792 235.054,179.582 234.501,179.524 234.258 C 179.465 234.015,179.317 233.617,179.195 233.375 C 178.701 232.397,177.976 230.074,177.990 229.515 C 178.021 228.263,178.521 227.657,178.724 228.624 C 178.775 228.869,178.995 229.455,179.212 229.927 C 179.429 230.398,179.607 230.825,179.607 230.876 C 179.607 230.926,179.805 231.375,180.047 231.872 C 180.289 232.370,181.282 234.412,182.254 236.411 C 183.227 238.409,184.198 240.438,184.412 240.920 C 184.968 242.168,185.041 241.860,184.505 240.523 C 184.258 239.906,184.056 239.334,184.056 239.251 C 184.056 239.168,183.857 238.712,183.614 238.238 C 183.107 237.249,181.688 234.226,180.910 232.481 C 179.712 229.789,179.459 229.186,179.459 229.017 C 179.459 228.739,178.550 226.623,178.093 225.838 C 177.221 224.338,177.391 223.042,178.346 223.916 C 179.524 224.994,180.874 225.732,181.665 225.732 C 182.744 225.732,184.650 223.925,184.650 222.902 C 184.650 222.434,183.968 220.230,183.784 220.103 C 183.720 220.058,183.423 219.616,183.124 219.119 L 182.581 218.216 183.504 217.254 C 184.012 216.725,184.961 215.605,185.614 214.764 C 186.266 213.924,186.967 213.061,187.171 212.847 C 187.375 212.633,187.608 212.348,187.690 212.213 C 187.895 211.872,190.322 208.834,190.751 208.380 C 190.944 208.176,191.168 207.900,191.250 207.768 C 191.572 207.243,194.488 203.782,194.607 203.782 C 194.678 203.782,194.735 203.693,194.735 203.584 C 194.735 203.475,194.918 203.217,195.143 203.010 C 195.367 202.802,195.751 202.379,195.996 202.069 C 196.609 201.291,198.213 199.411,199.027 198.514 C 199.399 198.105,200.216 197.204,200.842 196.512 C 201.468 195.820,202.369 194.841,202.844 194.337 C 203.319 193.832,204.308 192.768,205.043 191.972 C 206.757 190.113,213.657 183.204,214.910 182.092 C 215.974 181.146,217.557 179.732,218.189 179.162 C 218.837 178.577,219.747 177.808,221.505 176.358 C 222.403 175.619,223.352 174.829,223.616 174.603 C 224.409 173.925,224.585 173.785,225.809 172.859 C 226.456 172.369,227.104 171.852,227.249 171.709 C 227.393 171.567,227.607 171.450,227.722 171.450 C 227.838 171.450,227.955 171.389,227.982 171.315 C 228.039 171.159,229.647 169.959,230.277 169.602 C 230.510 169.470,230.968 169.161,231.294 168.916 C 231.620 168.671,232.338 168.173,232.888 167.810 C 233.439 167.448,233.890 167.117,233.890 167.075 C 233.890 166.918,233.646 167.029,233.028 167.466 M222.210 178.750 C 222.026 178.838,221.876 178.968,221.876 179.039 C 221.876 179.109,221.687 179.282,221.456 179.424 C 221.098 179.642,219.437 181.108,217.633 182.796 C 217.371 183.040,216.475 183.875,215.640 184.650 C 212.893 187.201,208.525 191.662,206.571 193.912 C 206.220 194.316,205.545 195.078,205.071 195.605 L 204.209 196.564 204.563 196.892 C 204.757 197.072,205.078 197.271,205.276 197.334 C 205.474 197.396,205.903 197.618,206.229 197.826 C 206.555 198.033,207.089 198.345,207.416 198.518 C 207.742 198.691,208.343 199.022,208.750 199.252 C 209.806 199.849,210.828 200.419,211.939 201.030 C 213.124 201.681,214.410 202.390,215.536 203.013 C 216.005 203.273,216.739 203.677,217.167 203.910 C 218.314 204.536,219.171 205.024,220.171 205.618 C 220.660 205.909,221.227 206.228,221.431 206.328 C 221.635 206.427,222.447 206.896,223.235 207.370 C 224.023 207.844,224.713 208.231,224.768 208.231 C 224.824 208.231,225.514 208.623,226.302 209.102 C 227.090 209.581,228.235 210.251,228.847 210.591 C 229.459 210.931,230.393 211.473,230.923 211.795 C 231.453 212.117,232.088 212.478,232.332 212.598 C 232.577 212.718,233.077 213.019,233.445 213.267 C 233.812 213.515,234.185 213.718,234.274 213.718 C 234.364 213.719,234.558 213.852,234.705 214.016 C 234.853 214.179,235.035 214.312,235.111 214.312 C 235.186 214.312,235.600 214.546,236.030 214.831 C 236.460 215.117,236.889 215.350,236.982 215.350 C 237.076 215.350,237.152 215.417,237.152 215.499 C 237.152 215.580,237.242 215.647,237.352 215.647 C 237.462 215.647,237.672 215.780,237.820 215.944 C 237.967 216.107,238.153 216.240,238.233 216.240 C 238.313 216.240,238.972 216.641,239.697 217.130 C 240.423 217.620,241.043 218.020,241.075 218.020 C 241.107 218.020,241.679 218.404,242.347 218.873 C 243.015 219.342,243.668 219.792,243.799 219.874 C 243.930 219.956,244.607 220.437,245.304 220.944 C 246.000 221.452,246.794 222.019,247.067 222.205 C 247.341 222.391,247.677 222.644,247.814 222.766 C 247.952 222.888,248.629 223.419,249.320 223.946 C 250.010 224.473,250.628 224.990,250.693 225.095 C 250.759 225.201,250.877 225.287,250.957 225.287 C 251.090 225.287,254.931 228.415,255.871 229.289 C 256.092 229.494,256.719 230.063,257.264 230.552 C 257.809 231.042,259.075 232.243,260.078 233.222 C 261.081 234.201,262.022 235.113,262.170 235.249 C 262.319 235.384,262.787 235.886,263.211 236.364 C 263.636 236.841,264.386 237.664,264.879 238.193 C 265.372 238.722,265.776 239.202,265.776 239.260 C 265.776 239.318,265.896 239.485,266.041 239.631 C 266.260 239.850,267.144 240.933,267.589 241.528 C 267.650 241.609,267.855 241.876,268.044 242.121 C 268.385 242.562,270.015 244.951,270.300 245.428 C 270.382 245.564,270.632 245.956,270.857 246.298 C 271.081 246.640,271.264 246.983,271.264 247.059 C 271.264 247.135,271.387 247.357,271.538 247.551 C 271.815 247.910,272.633 249.490,273.449 251.242 C 277.812 260.617,278.208 273.984,274.438 284.627 C 274.161 285.410,273.934 286.127,273.934 286.220 C 273.934 286.402,273.283 287.986,272.614 289.433 C 271.697 291.416,271.538 291.728,271.404 291.811 C 271.327 291.859,271.264 291.989,271.264 292.101 C 271.264 292.302,270.703 293.305,269.938 294.475 C 269.724 294.802,269.457 295.251,269.345 295.474 C 269.232 295.697,269.034 296.001,268.905 296.149 C 268.775 296.297,268.576 296.582,268.461 296.782 C 268.242 297.165,266.894 299.011,266.192 299.889 C 264.162 302.426,263.631 303.013,261.559 305.009 C 260.376 306.149,259.089 307.335,258.699 307.645 C 258.309 307.955,257.824 308.345,257.620 308.513 C 256.763 309.217,254.653 310.716,254.518 310.716 C 254.437 310.716,254.318 310.802,254.253 310.909 C 254.127 311.113,252.005 312.522,250.278 313.548 C 249.648 313.922,249.894 314.186,250.557 313.847 C 251.218 313.509,253.926 312.417,255.914 311.687 C 256.403 311.507,257.064 311.248,257.382 311.110 C 257.699 310.973,258.267 310.759,258.642 310.634 C 259.018 310.510,259.677 310.243,260.108 310.042 C 260.538 309.842,260.976 309.677,261.079 309.677 C 261.183 309.677,261.331 309.614,261.409 309.537 C 261.486 309.460,262.251 309.038,263.107 308.599 C 263.964 308.160,264.931 307.637,265.258 307.436 C 265.584 307.235,266.018 306.989,266.222 306.888 C 266.426 306.786,267.026 306.438,267.557 306.113 C 268.087 305.788,268.687 305.440,268.891 305.341 C 269.095 305.241,269.296 305.125,269.336 305.083 C 269.497 304.915,270.368 304.338,270.460 304.338 C 270.514 304.338,270.786 304.138,271.065 303.893 C 271.343 303.648,271.666 303.448,271.781 303.448 C 271.897 303.448,272.045 303.358,272.110 303.247 C 272.175 303.137,272.495 302.878,272.822 302.671 C 273.148 302.465,273.615 302.122,273.860 301.908 C 274.105 301.695,274.345 301.520,274.394 301.520 C 274.444 301.520,274.653 301.370,274.859 301.187 C 275.065 301.003,275.826 300.388,276.549 299.819 C 278.997 297.896,280.205 296.778,282.870 293.971 C 283.339 293.476,283.724 293.021,283.725 292.958 C 283.727 292.895,283.891 292.689,284.091 292.500 C 284.867 291.764,289.062 286.008,289.062 285.680 C 289.062 285.614,289.234 285.330,289.443 285.049 C 289.653 284.768,289.946 284.305,290.094 284.019 C 290.523 283.190,291.517 281.303,291.695 280.979 C 292.131 280.182,293.587 276.843,293.732 276.307 C 293.787 276.103,293.957 275.660,294.110 275.322 C 294.262 274.985,294.429 274.517,294.481 274.284 C 294.532 274.051,294.732 273.393,294.924 272.822 C 297.117 266.314,297.623 256.021,296.171 247.460 C 295.020 240.677,292.639 234.554,288.963 228.921 C 287.794 227.131,286.456 225.279,285.050 223.508 C 283.786 221.916,281.446 219.292,280.020 217.870 C 278.461 216.315,277.641 215.537,275.485 213.566 C 273.837 212.060,270.523 209.275,267.705 207.028 C 266.921 206.403,264.427 204.545,262.366 203.049 C 261.591 202.487,260.744 201.851,260.483 201.637 C 260.223 201.422,259.289 200.738,258.407 200.116 C 257.525 199.494,256.770 198.941,256.730 198.887 C 256.660 198.794,254.154 197.056,253.630 196.737 C 253.496 196.656,252.498 196.001,251.412 195.282 C 250.326 194.563,249.276 193.902,249.079 193.812 C 248.882 193.723,248.721 193.604,248.721 193.548 C 248.721 193.493,248.550 193.370,248.340 193.274 C 248.131 193.179,247.409 192.742,246.736 192.303 C 246.063 191.865,245.250 191.362,244.929 191.185 C 244.608 191.008,243.978 190.637,243.530 190.360 C 243.081 190.082,242.481 189.716,242.195 189.545 C 241.910 189.374,241.242 188.970,240.712 188.646 C 240.182 188.322,239.581 187.978,239.377 187.880 C 239.173 187.783,238.739 187.530,238.413 187.319 C 238.087 187.108,237.653 186.856,237.449 186.758 C 237.245 186.661,236.644 186.315,236.114 185.990 C 235.584 185.665,234.983 185.317,234.779 185.217 C 234.575 185.117,234.242 184.924,234.038 184.789 C 233.574 184.482,232.124 183.675,229.588 182.311 C 229.058 182.026,228.191 181.542,227.660 181.235 C 226.771 180.721,222.620 178.556,222.567 178.579 C 222.554 178.584,222.393 178.661,222.210 178.750 M277.260 183.018 C 277.260 183.181,277.299 183.315,277.345 183.315 C 277.392 183.315,277.439 183.432,277.451 183.574 C 277.462 183.717,277.581 184.334,277.715 184.946 C 277.903 185.805,277.939 186.479,277.871 187.902 C 277.784 189.717,277.787 189.741,278.069 189.486 C 278.926 188.710,278.751 185.133,277.783 183.611 C 277.705 183.489,277.576 183.239,277.497 183.055 C 277.319 182.644,277.260 182.635,277.260 183.018 M370.844 193.095 C 369.255 193.279,366.033 194.369,364.759 195.153 C 356.814 200.044,354.252 209.123,358.389 217.723 C 359.652 220.350,363.137 224.353,364.204 224.404 C 364.274 224.407,364.562 224.607,364.844 224.848 C 365.127 225.090,365.434 225.287,365.528 225.287 C 365.622 225.287,365.925 225.438,366.201 225.623 C 369.886 228.082,377.920 228.441,381.793 226.318 C 381.934 226.241,382.111 226.177,382.185 226.177 C 382.326 226.177,383.805 225.303,384.746 224.665 C 385.635 224.062,387.444 222.325,388.116 221.431 C 388.330 221.146,388.589 220.824,388.691 220.716 C 388.793 220.608,388.877 220.433,388.877 220.326 C 388.877 220.220,388.974 220.052,389.092 219.954 C 389.342 219.747,390.489 217.418,390.666 216.759 C 390.732 216.515,390.927 215.814,391.100 215.202 C 391.742 212.933,391.675 209.414,390.940 206.881 C 390.784 206.342,390.656 205.794,390.656 205.664 C 390.656 205.452,389.995 203.885,389.580 203.115 C 388.829 201.720,388.487 201.149,388.256 200.901 C 388.108 200.742,387.986 200.541,387.986 200.454 C 387.985 199.998,383.507 195.773,383.025 195.773 C 382.989 195.773,382.672 195.587,382.321 195.360 C 379.421 193.482,375.016 192.613,370.844 193.095 M140.989 211.869 C 140.953 212.246,140.964 212.515,141.013 212.466 C 141.197 212.282,141.602 213.550,141.769 214.831 C 141.864 215.565,142.008 216.500,142.089 216.908 C 142.170 217.316,142.369 218.311,142.531 219.119 C 142.693 219.927,142.825 220.815,142.825 221.092 C 142.825 221.369,142.922 222.042,143.039 222.588 C 143.157 223.135,143.361 224.216,143.493 224.991 C 143.708 226.249,144.352 228.993,144.558 229.532 C 144.613 229.674,144.518 229.737,144.247 229.737 C 143.706 229.737,143.498 229.081,142.903 225.510 C 142.767 224.694,142.465 222.992,142.231 221.728 C 141.998 220.463,141.694 218.568,141.557 217.515 C 141.420 216.462,141.196 214.964,141.058 214.187 L 140.809 212.773 140.482 213.669 C 140.303 214.162,140.154 214.625,140.152 214.698 C 140.151 214.771,139.952 215.232,139.711 215.721 C 139.470 216.211,139.271 216.688,139.269 216.783 C 139.267 216.877,139.073 217.383,138.838 217.908 C 138.603 218.432,138.361 219.086,138.300 219.362 C 138.187 219.878,137.763 220.899,137.507 221.272 C 137.338 221.519,136.300 220.835,136.300 220.478 C 136.300 220.370,136.199 220.198,136.077 220.096 C 135.955 219.995,135.855 219.761,135.855 219.577 C 135.855 219.393,135.955 219.160,136.077 219.058 C 136.199 218.957,136.300 218.791,136.300 218.689 C 136.300 218.588,136.422 218.346,136.571 218.151 C 136.721 217.957,137.002 217.497,137.197 217.130 C 137.391 216.763,137.658 216.329,137.790 216.166 C 137.996 215.912,138.290 215.445,139.043 214.176 C 139.125 214.039,139.548 213.447,139.983 212.860 C 141.301 211.085,140.777 211.212,139.118 213.071 C 138.750 213.482,138.311 214.013,138.140 214.251 C 137.511 215.127,136.448 216.706,136.448 216.763 C 136.448 216.902,135.207 218.465,135.097 218.465 C 134.878 218.465,134.676 217.919,134.575 217.055 L 134.475 216.207 136.388 214.325 C 139.949 210.821,141.146 210.182,140.989 211.869 M140.769 215.610 C 140.779 216.324,140.796 217.141,140.806 217.427 C 140.831 218.173,140.593 222.198,140.506 222.506 C 140.383 222.940,139.126 222.639,138.467 222.018 C 138.333 221.893,138.770 220.345,139.579 218.079 C 139.814 217.419,140.007 216.799,140.007 216.703 C 140.007 216.606,140.145 216.120,140.312 215.623 C 140.480 215.125,140.582 214.626,140.539 214.515 C 140.497 214.403,140.526 214.312,140.605 214.312 C 140.686 214.312,140.758 214.885,140.769 215.610 M133.778 217.357 C 133.778 217.472,133.944 217.942,134.147 218.400 C 134.431 219.043,134.480 219.300,134.361 219.522 C 133.830 220.515,131.865 222.941,131.644 222.878 C 131.430 222.817,130.383 220.705,130.374 220.317 C 130.367 220.028,131.318 218.964,132.796 217.606 C 133.463 216.993,133.778 216.913,133.778 217.357 M141.776 222.591 C 141.786 223.164,141.754 223.227,141.470 223.184 C 141.163 223.138,141.152 223.061,141.108 220.541 L 141.063 217.946 141.414 219.948 C 141.607 221.049,141.770 222.239,141.776 222.591 M136.181 221.597 C 137.194 222.620,137.173 222.362,136.404 224.408 C 135.557 226.663,135.456 226.700,133.799 225.378 C 132.237 224.132,132.251 224.373,133.630 222.399 C 134.966 220.488,135.054 220.460,136.181 221.597 M129.930 221.765 C 130.125 222.193,130.437 222.793,130.622 223.097 C 131.099 223.877,131.082 223.923,129.885 225.104 C 127.948 227.014,127.796 227.074,127.269 226.139 C 125.890 223.690,125.896 223.721,126.629 223.165 C 126.931 222.937,127.679 222.354,128.291 221.872 C 129.636 220.811,129.499 220.819,129.930 221.765 M138.791 223.265 C 139.011 223.377,139.442 223.513,139.748 223.569 C 140.395 223.686,140.380 223.593,140.142 225.955 C 139.884 228.524,139.826 228.565,137.803 227.645 C 137.284 227.409,136.767 227.215,136.654 227.215 C 136.333 227.215,136.407 226.544,136.819 225.732 C 137.023 225.330,137.189 224.927,137.189 224.838 C 137.189 224.491,137.990 223.063,138.185 223.063 C 138.298 223.063,138.571 223.154,138.791 223.265 M141.727 223.918 C 142.065 224.145,142.962 228.424,142.775 228.914 C 142.717 229.065,142.527 229.076,141.913 228.964 C 140.678 228.740,140.550 228.631,140.667 227.906 C 140.722 227.567,140.827 226.571,140.899 225.694 C 141.056 223.785,141.169 223.543,141.727 223.918 M125.797 225.369 C 127.009 227.657,127.011 227.668,126.306 228.140 C 122.985 230.365,123.282 230.414,121.902 227.413 L 121.337 226.185 121.764 225.881 C 121.998 225.714,122.477 225.476,122.828 225.353 C 123.179 225.229,123.634 225.013,123.839 224.874 C 125.013 224.075,125.126 224.103,125.797 225.369 M132.519 225.511 C 133.265 226.167,134.606 227.170,134.841 227.248 C 135.155 227.353,134.044 229.613,133.152 230.684 C 132.717 231.206,132.620 231.168,130.886 229.775 C 130.234 229.251,129.633 228.777,129.551 228.723 C 128.470 228.000,128.523 227.840,130.403 226.154 C 131.910 224.802,131.763 224.846,132.519 225.511 M231.072 225.340 C 230.596 225.496,228.894 226.275,228.179 226.664 C 227.700 226.925,225.989 227.834,225.547 228.064 C 225.256 228.214,225.139 228.390,225.139 228.672 C 225.138 229.147,224.608 232.379,224.475 232.719 C 224.391 232.935,221.759 234.334,221.438 234.334 C 221.364 234.334,220.915 234.530,220.440 234.770 C 219.966 235.009,218.943 235.450,218.168 235.749 C 217.393 236.048,216.593 236.376,216.389 236.479 C 216.185 236.581,215.150 236.981,214.090 237.366 C 213.029 237.751,211.761 238.220,211.272 238.408 C 210.182 238.826,208.217 239.500,207.416 239.731 C 207.089 239.825,206.322 240.075,205.710 240.286 C 203.358 241.098,197.418 242.912,194.216 243.797 C 190.622 244.790,190.170 244.910,189.099 245.155 C 188.487 245.296,187.453 245.551,186.800 245.724 C 184.398 246.358,183.069 246.684,182.128 246.870 C 181.598 246.975,180.483 247.234,179.651 247.446 C 178.818 247.658,177.999 247.831,177.831 247.831 C 177.663 247.831,177.033 247.963,176.431 248.124 C 175.830 248.285,174.747 248.519,174.024 248.643 C 173.302 248.767,171.809 249.031,170.708 249.230 C 167.673 249.779,163.984 250.336,162.329 250.495 C 161.513 250.574,159.778 250.772,158.472 250.936 C 157.167 251.100,155.065 251.303,153.801 251.387 C 152.536 251.471,150.534 251.605,149.351 251.685 C 141.317 252.230,131.761 251.530,125.918 249.969 C 123.744 249.389,123.723 249.383,121.950 248.750 C 121.033 248.423,120.282 248.189,120.282 248.230 C 120.282 248.271,120.406 248.481,120.558 248.698 C 120.710 248.914,120.912 249.325,121.006 249.611 C 122.923 255.424,123.697 257.121,125.844 260.220 C 126.170 260.691,126.545 261.236,126.676 261.431 C 128.237 263.744,131.711 266.603,135.484 268.681 C 137.386 269.728,139.650 270.792,140.869 271.211 L 141.508 271.430 143.633 270.383 C 144.802 269.807,145.853 269.336,145.968 269.336 C 146.083 269.336,146.241 269.280,146.318 269.211 C 147.116 268.502,152.545 267.062,157.731 266.184 L 160.549 265.707 166.333 265.710 C 171.635 265.712,172.290 265.740,174.194 266.050 C 175.336 266.235,176.715 266.447,177.259 266.521 C 178.380 266.673,180.931 267.238,183.018 267.795 C 183.793 268.002,184.594 268.204,184.798 268.245 C 185.266 268.337,188.204 269.248,189.766 269.785 C 190.419 270.010,191.253 270.294,191.620 270.418 C 192.713 270.786,194.715 271.509,196.218 272.080 C 196.993 272.374,198.024 272.751,198.510 272.917 C 198.996 273.084,199.663 273.336,199.993 273.478 C 200.323 273.620,200.827 273.819,201.112 273.920 C 201.925 274.206,205.517 275.548,206.748 276.026 C 207.360 276.263,207.927 276.456,208.009 276.455 C 208.090 276.454,208.658 276.643,209.270 276.874 C 213.610 278.515,215.066 278.759,215.576 277.933 C 215.629 277.848,215.917 277.618,216.216 277.422 C 217.315 276.701,220.259 274.509,220.681 274.097 C 220.814 273.967,221.422 273.429,222.030 272.903 C 222.639 272.377,223.309 271.776,223.519 271.568 C 223.729 271.360,224.029 271.084,224.186 270.955 C 225.171 270.143,229.144 265.635,230.109 264.236 C 230.271 264.000,230.538 263.625,230.701 263.402 C 231.212 262.705,232.555 260.696,232.555 260.629 C 232.555 260.594,232.755 260.274,233.000 259.918 C 233.244 259.563,233.445 259.227,233.445 259.173 C 233.445 259.119,233.572 258.895,233.728 258.676 C 234.309 257.861,236.398 253.845,237.460 251.503 C 238.361 249.516,238.863 248.413,239.233 247.608 C 240.462 244.938,240.495 243.754,239.377 242.418 C 239.240 242.254,238.978 241.869,238.793 241.561 C 238.609 241.253,238.375 240.918,238.274 240.816 C 238.172 240.715,238.014 240.490,237.921 240.318 C 237.829 240.145,237.619 239.846,237.454 239.654 C 237.290 239.461,236.484 238.469,235.664 237.449 C 234.844 236.429,234.081 235.484,233.969 235.347 C 233.306 234.545,233.293 233.865,233.876 230.427 C 234.113 229.028,234.351 227.544,234.405 227.130 L 234.503 226.378 233.170 225.759 C 232.437 225.418,231.781 225.146,231.714 225.155 C 231.646 225.163,231.357 225.247,231.072 225.340 M121.299 228.321 C 122.464 230.686,122.532 230.452,120.373 231.508 C 117.916 232.710,118.001 232.720,117.205 231.146 C 115.680 228.128,115.667 228.075,116.389 227.821 C 116.694 227.714,117.145 227.542,117.390 227.440 C 117.984 227.191,120.017 226.510,120.224 226.490 C 120.315 226.481,120.799 227.305,121.299 228.321 M137.131 228.312 C 137.547 228.506,138.265 228.775,138.725 228.908 C 139.731 229.201,139.746 229.280,139.176 231.294 C 138.968 232.028,138.761 232.784,138.716 232.975 C 138.571 233.584,138.402 233.571,136.151 232.776 C 133.679 231.903,133.547 231.778,134.149 230.891 C 134.353 230.591,134.520 230.310,134.520 230.266 C 134.520 230.197,134.982 229.394,135.657 228.291 C 135.915 227.869,136.187 227.873,137.131 228.312 M230.480 228.217 C 230.482 228.575,230.072 231.379,229.704 233.519 C 229.536 234.498,229.312 235.848,229.207 236.519 C 229.101 237.190,228.810 238.580,228.560 239.608 C 228.310 240.635,228.106 241.588,228.106 241.724 C 228.106 241.861,227.902 242.740,227.653 243.678 C 227.404 244.616,226.998 246.151,226.752 247.089 C 225.902 250.323,224.862 253.774,224.088 255.929 C 223.850 256.590,223.656 257.190,223.657 257.264 C 223.658 257.412,223.013 259.097,222.216 261.031 C 221.697 262.290,220.128 265.669,219.737 266.370 C 219.623 266.574,219.324 267.141,219.072 267.631 C 218.665 268.423,218.226 269.216,217.556 270.374 C 217.438 270.578,217.121 271.129,216.851 271.598 C 216.581 272.067,216.326 272.451,216.284 272.451 C 216.151 272.451,216.402 271.383,216.611 271.057 C 216.722 270.886,217.187 269.911,217.645 268.891 C 218.102 267.872,218.608 266.763,218.768 266.428 C 218.927 266.093,219.058 265.751,219.058 265.668 C 219.058 265.586,219.251 265.059,219.486 264.498 C 219.951 263.388,220.681 261.349,220.992 260.289 C 221.100 259.922,221.231 259.555,221.283 259.473 C 221.335 259.392,221.463 259.025,221.568 258.658 C 221.673 258.291,221.952 257.410,222.188 256.700 C 222.424 255.990,222.616 255.323,222.615 255.217 C 222.613 255.111,222.808 254.357,223.049 253.541 C 223.942 250.511,224.923 246.392,225.715 242.343 C 226.405 238.819,227.034 235.379,227.139 234.557 C 227.683 230.299,228.012 229.400,229.352 228.528 C 230.337 227.886,230.478 227.847,230.480 228.217 M160.902 228.375 C 160.517 228.670,159.184 229.436,157.459 230.357 C 157.309 230.437,157.218 230.534,157.258 230.574 C 157.297 230.613,157.905 230.324,158.608 229.931 C 159.311 229.539,160.074 229.115,160.302 228.990 C 160.937 228.642,161.607 228.115,161.422 228.110 C 161.331 228.107,161.097 228.227,160.902 228.375 M115.373 229.680 C 115.673 230.424,116.133 231.435,116.395 231.926 C 117.025 233.108,117.056 233.039,115.573 233.749 C 114.859 234.090,113.952 234.529,113.557 234.723 C 112.339 235.322,112.357 235.337,110.659 232.066 C 109.474 229.782,109.304 230.050,112.718 228.835 C 114.803 228.093,114.723 228.067,115.373 229.680 M128.891 229.329 C 129.499 229.872,130.316 230.516,131.843 231.653 C 132.205 231.922,132.205 231.925,131.929 232.346 C 131.334 233.254,129.172 235.224,128.771 235.224 C 128.301 235.224,124.284 231.512,124.289 231.082 C 124.291 230.861,125.506 229.948,126.136 229.692 C 126.297 229.627,126.464 229.519,126.507 229.451 C 127.036 228.625,128.045 228.573,128.891 229.329 M141.820 229.639 C 142.979 229.884,142.998 229.916,143.114 231.914 C 143.267 234.552,143.304 234.515,140.962 234.106 C 139.201 233.799,139.225 233.832,139.649 232.364 C 139.843 231.694,140.074 230.762,140.163 230.293 C 140.347 229.327,140.346 229.327,141.820 229.639 M144.203 230.444 C 144.333 230.588,144.510 231.017,144.595 231.398 C 144.681 231.779,144.890 232.465,145.062 232.923 C 145.464 233.998,145.386 234.186,144.536 234.186 L 143.864 234.186 143.863 233.630 C 143.862 233.324,143.819 232.423,143.766 231.628 C 143.668 230.139,143.743 229.935,144.203 230.444 M109.637 232.044 C 110.023 232.774,110.401 233.508,110.476 233.677 C 110.552 233.845,110.790 234.243,111.005 234.560 C 111.710 235.599,111.556 235.804,109.158 237.021 C 108.954 237.124,108.654 237.322,108.491 237.461 C 108.328 237.599,107.818 237.922,107.359 238.178 L 106.523 238.645 106.172 238.205 C 105.979 237.964,105.654 237.526,105.451 237.233 C 105.247 236.940,104.729 236.241,104.301 235.679 C 103.873 235.118,103.522 234.583,103.522 234.492 C 103.522 234.189,106.208 231.939,106.984 231.591 C 107.166 231.509,107.513 231.302,107.754 231.130 C 108.745 230.426,108.794 230.450,109.637 232.044 M155.844 231.131 C 155.540 231.312,155.240 231.512,155.176 231.578 C 155.005 231.753,156.127 231.269,156.506 231.004 C 157.011 230.650,156.482 230.752,155.844 231.131 M125.175 233.455 C 126.168 234.428,127.076 235.224,127.194 235.224 C 127.392 235.224,127.820 235.912,127.684 236.013 C 127.437 236.197,126.083 237.113,125.844 237.257 C 123.167 238.872,123.218 238.849,123.014 238.571 C 122.908 238.425,122.566 238.030,122.256 237.692 C 120.884 236.201,118.947 233.761,118.947 233.523 C 118.947 233.469,119.531 233.156,120.245 232.827 C 120.958 232.497,121.865 232.072,122.258 231.881 C 123.170 231.439,123.052 231.376,125.175 233.455 M153.980 231.988 C 153.631 232.158,153.373 232.325,153.408 232.360 C 153.475 232.427,154.839 231.820,154.839 231.723 C 154.839 231.612,154.612 231.682,153.980 231.988 M134.223 232.865 C 134.771 233.114,137.177 234.032,137.894 234.265 C 138.308 234.400,136.666 237.228,135.718 238.013 C 135.309 238.352,133.703 237.855,131.140 236.598 C 129.669 235.877,129.666 235.845,130.960 234.702 C 131.408 234.306,132.042 233.662,132.369 233.271 C 133.037 232.471,133.254 232.424,134.223 232.865 M151.428 232.937 C 150.979 233.130,150.712 233.289,150.834 233.292 C 151.091 233.297,152.401 232.817,152.558 232.660 C 152.756 232.462,152.244 232.587,151.428 232.937 M148.313 233.820 C 147.701 234.009,147.334 234.169,147.498 234.175 C 147.814 234.187,149.782 233.656,149.915 233.523 C 150.079 233.360,149.386 233.488,148.313 233.820 M118.090 234.223 C 118.434 234.492,122.210 238.932,122.210 239.068 C 122.210 239.232,121.764 239.594,121.246 239.850 C 121.001 239.971,120.400 240.294,119.911 240.567 C 116.776 242.315,116.918 242.278,116.387 241.491 C 115.274 239.841,113.918 237.682,113.911 237.550 C 113.907 237.484,113.737 237.210,113.534 236.943 C 112.950 236.178,113.162 235.976,115.758 234.815 C 117.711 233.941,117.724 233.938,118.090 234.223 M141.664 234.877 C 143.232 235.005,143.211 234.982,142.989 236.287 C 142.497 239.182,142.516 239.169,139.208 238.959 C 136.187 238.768,136.154 238.755,136.819 237.982 C 137.023 237.745,137.189 237.504,137.189 237.447 C 137.189 237.389,137.422 237.049,137.707 236.691 C 137.992 236.333,138.225 235.972,138.226 235.889 C 138.233 235.205,139.015 234.595,139.766 234.689 C 140.184 234.742,141.038 234.826,141.664 234.877 M145.760 234.965 C 145.947 235.191,146.704 237.902,146.795 238.673 L 146.861 239.229 144.843 239.229 C 143.611 239.229,142.825 239.172,142.825 239.082 C 142.825 239.001,142.960 238.584,143.125 238.155 C 143.290 237.726,143.491 236.913,143.573 236.348 C 143.749 235.128,143.863 234.962,144.579 234.887 C 144.879 234.855,145.233 234.818,145.366 234.804 C 145.498 234.791,145.676 234.863,145.760 234.965 M112.384 236.968 C 112.527 237.112,112.944 237.712,113.311 238.301 C 113.678 238.890,114.396 240.020,114.905 240.812 C 116.120 242.698,116.117 242.726,114.609 243.742 C 113.936 244.196,112.873 244.934,112.247 245.383 C 110.892 246.355,110.849 246.347,110.034 244.964 C 109.690 244.379,109.301 243.742,109.172 243.547 C 109.042 243.353,108.869 243.085,108.788 242.951 C 108.002 241.664,107.704 241.125,107.427 240.489 L 107.104 239.748 107.501 239.330 C 107.921 238.888,108.015 238.827,109.394 238.099 C 109.876 237.844,110.638 237.428,111.086 237.174 C 112.046 236.632,112.049 236.631,112.384 236.968 M106.825 241.452 C 107.067 241.900,107.390 242.426,107.544 242.621 C 107.698 242.817,107.824 243.040,107.824 243.118 C 107.824 243.195,108.015 243.537,108.250 243.876 C 109.146 245.176,110.205 246.834,110.164 246.876 C 110.141 246.901,109.622 247.472,109.010 248.145 C 106.555 250.849,106.687 250.727,106.443 250.524 C 105.948 250.113,105.041 248.361,103.618 245.069 C 103.021 243.685,103.045 243.606,104.582 241.983 C 106.124 240.353,106.219 240.330,106.825 241.452 M222.511 242.583 C 222.561 242.633,222.511 242.916,222.399 243.213 C 222.288 243.510,222.156 243.996,222.107 244.294 C 221.997 244.952,221.860 245.068,220.914 245.299 C 220.507 245.399,220.107 245.533,220.024 245.598 C 219.942 245.663,219.607 245.794,219.281 245.889 C 218.954 245.984,218.053 246.256,217.278 246.495 C 216.504 246.733,215.202 247.130,214.386 247.377 C 213.571 247.623,212.245 248.027,211.439 248.273 C 210.634 248.519,209.900 248.719,209.808 248.718 C 209.716 248.716,208.973 248.913,208.157 249.156 C 206.202 249.737,200.941 251.094,199.036 251.508 C 198.669 251.588,197.701 251.822,196.885 252.028 C 196.070 252.234,194.501 252.603,193.400 252.848 C 192.299 253.094,190.630 253.467,189.692 253.678 C 188.754 253.888,187.519 254.126,186.948 254.206 C 186.377 254.286,185.443 254.448,184.872 254.565 C 184.301 254.683,183.300 254.858,182.647 254.954 C 181.995 255.050,180.460 255.288,179.236 255.484 C 178.013 255.680,176.377 255.905,175.603 255.985 C 174.828 256.065,173.259 256.263,172.117 256.424 C 170.975 256.586,169.207 256.788,168.187 256.873 C 167.167 256.958,164.965 257.168,163.293 257.339 C 156.652 258.017,141.327 257.876,136.077 257.088 C 134.815 256.899,134.915 256.894,137.931 256.994 C 145.784 257.256,156.518 257.063,160.771 256.584 C 170.272 255.514,176.239 254.570,184.427 252.841 C 185.243 252.669,186.377 252.450,186.948 252.354 C 187.917 252.191,189.233 251.899,194.067 250.775 C 196.305 250.254,198.808 249.596,200.832 248.995 C 201.616 248.763,202.357 248.572,202.479 248.572 C 202.600 248.572,203.360 248.380,204.168 248.145 C 204.975 247.911,206.403 247.503,207.341 247.239 C 209.059 246.757,211.109 246.129,212.755 245.582 C 213.244 245.420,214.012 245.189,214.461 245.070 C 214.909 244.951,215.410 244.792,215.573 244.717 C 215.736 244.641,216.237 244.472,216.685 244.341 C 217.134 244.209,217.935 243.946,218.465 243.754 C 218.995 243.563,219.949 243.257,220.584 243.074 C 221.219 242.891,221.774 242.685,221.816 242.617 C 221.906 242.472,222.377 242.449,222.511 242.583 M233.143 246.348 C 233.586 246.960,234.036 247.560,234.142 247.683 C 235.397 249.126,235.610 250.008,234.742 250.176 C 234.491 250.224,233.455 249.217,233.449 248.919 C 233.446 248.823,233.390 248.723,233.323 248.696 C 232.840 248.499,231.368 245.736,231.368 245.025 C 231.368 244.152,231.768 244.450,233.143 246.348 M111.883 248.906 C 112.482 249.498,113.320 250.248,113.744 250.575 C 115.894 252.229,116.298 252.605,116.195 252.851 C 115.722 253.982,115.329 255.216,115.119 256.238 L 114.868 257.452 114.053 257.047 C 113.267 256.657,112.570 256.244,111.309 255.422 C 109.191 254.041,107.413 252.162,107.583 251.484 C 107.712 250.970,110.426 247.831,110.741 247.831 C 110.770 247.831,111.284 248.315,111.883 248.906 M220.012 252.115 C 220.105 252.265,219.597 253.888,219.407 254.047 C 219.287 254.147,216.779 254.890,215.350 255.248 C 213.322 255.756,208.390 256.946,207.045 257.252 C 204.926 257.734,196.574 259.303,195.180 259.481 C 194.813 259.528,193.278 259.760,191.769 259.997 C 186.827 260.774,183.851 261.181,182.123 261.318 C 181.188 261.392,179.088 261.589,177.456 261.756 C 170.328 262.485,149.648 262.816,149.648 262.202 C 149.648 262.126,152.412 262.069,156.136 262.068 C 162.475 262.067,166.756 261.924,169.744 261.613 C 170.560 261.528,172.329 261.365,173.674 261.249 C 175.020 261.134,176.789 260.936,177.605 260.809 C 178.420 260.682,179.922 260.481,180.942 260.362 C 183.473 260.066,187.357 259.472,190.211 258.944 C 191.516 258.703,192.718 258.507,192.881 258.508 C 193.434 258.514,203.400 256.351,207.267 255.386 C 211.754 254.267,216.949 252.820,218.910 252.143 C 219.415 251.969,219.914 251.956,220.012 252.115 M229.737 253.059 C 230.233 253.633,231.671 256.241,231.634 256.500 C 231.482 257.564,230.625 256.662,229.207 253.943 C 228.781 253.127,229.197 252.434,229.737 253.059 M251.761 253.766 C 248.586 254.101,245.910 255.258,243.709 257.246 C 242.795 258.072,241.602 259.573,241.602 259.898 C 241.602 260.022,241.541 260.161,241.466 260.207 C 241.141 260.408,240.056 263.343,240.143 263.787 C 240.186 264.005,240.259 263.985,240.672 263.637 C 242.080 262.452,245.126 261.179,246.555 261.179 C 247.699 261.179,250.649 262.825,250.649 263.463 C 250.649 263.542,250.784 263.751,250.950 263.928 C 251.250 264.247,251.650 265.186,252.084 266.589 C 252.724 268.660,251.535 273.563,250.072 274.884 C 249.900 275.039,249.759 275.244,249.759 275.338 C 249.759 275.635,247.651 277.707,246.320 278.719 C 244.813 279.864,241.525 281.531,239.966 281.939 C 239.601 282.035,238.936 282.241,238.487 282.398 C 232.680 284.430,222.189 284.442,214.238 282.427 C 213.422 282.220,212.455 282.000,212.088 281.937 C 211.076 281.765,204.768 279.766,202.299 278.835 C 201.687 278.605,200.619 278.205,199.926 277.947 C 198.636 277.467,197.222 276.910,195.773 276.311 C 195.324 276.126,194.590 275.848,194.142 275.693 C 193.693 275.538,193.109 275.309,192.843 275.185 C 192.578 275.060,192.077 274.867,191.731 274.757 C 191.385 274.647,190.768 274.421,190.360 274.256 C 186.383 272.641,179.832 270.875,175.380 270.215 C 168.669 269.222,165.271 269.235,157.508 270.282 C 154.119 270.739,148.567 272.303,145.825 273.572 C 145.394 273.771,145.001 273.934,144.951 273.934 C 144.762 273.934,141.093 275.797,140.505 276.191 C 140.167 276.418,139.848 276.604,139.796 276.604 C 139.609 276.604,136.449 278.730,135.595 279.430 C 135.492 279.514,134.958 279.920,134.408 280.332 C 133.404 281.084,133.106 281.351,131.506 282.922 C 130.552 283.859,129.843 284.731,129.950 284.838 C 130.045 284.933,131.456 284.359,133.378 283.446 C 134.259 283.027,135.065 282.684,135.169 282.684 C 135.273 282.684,135.787 282.510,136.311 282.297 C 137.398 281.855,138.810 281.439,140.527 281.054 C 141.179 280.908,142.280 280.649,142.974 280.480 C 143.667 280.310,144.768 280.104,145.421 280.022 C 146.073 279.940,147.375 279.760,148.313 279.621 C 153.836 278.806,163.660 279.658,169.892 281.493 C 172.184 282.167,173.948 282.750,174.917 283.151 C 175.478 283.384,176.007 283.574,176.092 283.574 C 176.177 283.574,176.702 283.775,177.259 284.019 C 177.816 284.264,178.756 284.671,179.347 284.923 C 179.939 285.175,180.923 285.615,181.535 285.901 C 184.503 287.285,185.126 287.581,185.836 287.945 C 186.040 288.050,186.507 288.279,186.874 288.456 C 187.241 288.632,187.642 288.833,187.764 288.903 C 187.887 288.972,188.554 289.304,189.247 289.641 C 189.941 289.978,190.742 290.377,191.027 290.528 C 191.313 290.679,191.780 290.909,192.065 291.038 C 192.351 291.168,192.751 291.369,192.955 291.485 C 193.159 291.601,193.626 291.840,193.993 292.016 C 194.360 292.192,194.761 292.391,194.883 292.459 C 195.680 292.899,198.916 294.402,199.070 294.403 C 199.174 294.404,199.540 294.566,199.883 294.762 C 200.227 294.958,200.661 295.167,200.847 295.225 C 201.034 295.284,201.605 295.523,202.117 295.756 C 202.629 295.990,203.124 296.181,203.218 296.181 C 203.311 296.181,203.827 296.373,204.363 296.607 C 205.479 297.094,207.433 297.834,208.306 298.101 C 208.632 298.200,209.232 298.403,209.640 298.551 C 218.870 301.896,234.105 303.064,242.566 301.076 C 243.218 300.923,244.019 300.754,244.346 300.701 C 244.914 300.608,247.637 299.910,248.721 299.578 C 251.230 298.810,255.994 296.679,257.341 295.723 C 257.554 295.571,257.888 295.377,258.082 295.291 C 258.276 295.205,258.662 294.970,258.939 294.768 C 259.448 294.398,259.844 294.293,259.844 294.529 C 259.844 294.734,259.082 295.439,258.860 295.439 C 258.749 295.439,258.658 295.502,258.658 295.579 C 258.658 295.701,257.845 296.373,256.361 297.478 C 256.115 297.660,255.714 297.914,255.469 298.042 C 255.224 298.169,254.624 298.534,254.134 298.853 C 252.266 300.069,248.242 302.159,246.878 302.621 C 246.476 302.758,245.842 302.993,245.469 303.143 C 240.093 305.316,229.336 306.511,222.395 305.705 C 221.580 305.610,220.245 305.465,219.429 305.381 C 217.882 305.223,214.935 304.683,212.903 304.184 C 210.625 303.626,210.372 303.558,208.899 303.110 C 207.370 302.646,203.725 301.383,202.862 301.019 C 202.593 300.906,201.839 300.595,201.187 300.328 C 200.534 300.062,199.578 299.654,199.063 299.421 C 198.547 299.189,198.099 298.999,198.067 298.999 C 198.013 298.999,196.430 298.289,195.106 297.671 C 194.779 297.518,193.845 297.085,193.029 296.707 C 192.214 296.330,191.446 295.963,191.324 295.892 C 190.087 295.175,178.910 289.701,177.308 289.028 C 175.583 288.303,173.365 287.436,171.969 286.942 C 160.672 282.944,147.805 282.937,137.037 286.924 C 136.505 287.121,136.019 287.282,135.957 287.282 C 135.689 287.282,133.482 288.206,133.482 288.318 C 133.482 288.443,134.266 289.116,137.189 291.500 C 138.046 292.199,138.926 292.937,139.145 293.141 C 139.364 293.345,139.606 293.511,139.683 293.511 C 139.760 293.511,139.914 293.622,140.026 293.758 C 140.206 293.975,142.571 295.780,143.789 296.630 C 144.889 297.397,145.901 298.125,146.299 298.437 C 146.538 298.624,146.805 298.810,146.893 298.851 C 147.071 298.934,149.944 300.799,150.569 301.238 C 150.790 301.393,151.027 301.520,151.096 301.520 C 151.165 301.520,151.451 301.692,151.732 301.903 C 152.013 302.113,152.544 302.451,152.911 302.653 C 153.278 302.856,153.878 303.193,154.245 303.402 C 155.020 303.845,156.460 304.625,157.731 305.291 C 158.220 305.548,158.754 305.833,158.917 305.925 C 159.477 306.240,162.679 307.744,163.319 307.992 C 163.672 308.129,164.031 308.295,164.117 308.361 C 164.262 308.471,164.967 308.777,167.371 309.775 C 167.861 309.978,168.428 310.216,168.632 310.304 C 169.104 310.509,170.236 310.948,171.376 311.369 C 171.865 311.549,172.591 311.843,172.989 312.022 C 173.387 312.201,173.806 312.347,173.920 312.347 C 174.035 312.347,174.543 312.522,175.051 312.736 C 175.558 312.949,176.274 313.210,176.641 313.315 C 177.008 313.420,177.709 313.645,178.198 313.813 C 179.594 314.295,181.854 314.977,182.425 315.089 C 182.710 315.145,183.311 315.312,183.760 315.459 C 186.742 316.438,193.565 317.711,199.629 318.421 C 205.439 319.101,216.578 318.985,221.060 318.198 C 221.795 318.069,222.996 317.878,223.730 317.773 C 225.881 317.464,231.400 316.099,233.074 315.461 C 233.482 315.306,234.016 315.132,234.260 315.075 C 235.024 314.897,237.894 313.787,240.044 312.839 C 241.335 312.270,241.373 312.251,242.593 311.591 C 243.050 311.344,243.765 310.966,244.181 310.752 C 244.598 310.537,245.145 310.208,245.398 310.020 C 245.650 309.831,245.902 309.677,245.958 309.677 C 246.087 309.677,247.535 308.718,249.314 307.453 C 251.909 305.608,255.116 302.680,257.457 300.016 C 259.467 297.730,262.217 294.236,262.217 293.968 C 262.217 293.900,262.317 293.762,262.439 293.660 C 262.636 293.497,263.186 292.644,263.854 291.466 C 263.980 291.245,264.263 290.782,264.485 290.437 C 264.706 290.092,264.887 289.758,264.887 289.695 C 264.887 289.632,265.245 288.846,265.682 287.949 C 266.119 287.052,266.595 285.951,266.740 285.502 C 266.884 285.054,267.051 284.620,267.111 284.538 C 267.596 283.877,269.152 278.090,269.424 275.936 C 269.955 271.737,269.297 266.114,268.017 263.908 C 267.927 263.753,267.719 263.326,267.555 262.959 C 267.194 262.150,266.446 260.920,266.059 260.502 C 265.904 260.334,265.777 260.127,265.777 260.044 C 265.777 259.818,263.326 257.375,262.633 256.910 C 258.973 254.454,255.300 253.391,251.761 253.766 M227.466 260.809 C 227.995 261.806,228.074 262.330,227.714 262.468 C 227.354 262.606,227.032 262.342,226.668 261.610 C 225.826 259.917,226.585 259.154,227.466 260.809 M217.312 260.845 C 217.468 261.574,216.912 262.015,215.586 262.214 C 215.171 262.277,214.030 262.500,213.052 262.711 C 211.237 263.101,207.686 263.780,206.748 263.916 C 206.463 263.957,204.928 264.188,203.337 264.429 C 201.746 264.669,199.711 264.937,198.813 265.023 C 197.916 265.110,196.248 265.283,195.106 265.409 C 191.309 265.828,179.326 266.111,179.533 265.777 C 179.586 265.690,180.439 265.628,181.581 265.627 C 182.657 265.626,184.538 265.531,185.762 265.417 C 186.986 265.303,189.155 265.100,190.582 264.966 C 192.010 264.833,194.045 264.596,195.106 264.440 C 196.166 264.285,197.668 264.084,198.443 263.995 C 201.131 263.685,209.543 262.265,212.088 261.691 C 212.944 261.498,214.212 261.227,214.905 261.089 C 215.599 260.951,216.266 260.783,216.389 260.716 C 216.776 260.505,217.254 260.571,217.312 260.845 M107.749 278.604 C 104.505 279.195,102.253 280.383,99.886 282.754 C 98.505 284.138,98.079 284.623,97.799 285.132 C 97.709 285.295,97.468 285.729,97.263 286.096 C 93.411 292.988,96.708 302.686,104.190 306.467 C 107.824 308.303,112.223 308.738,115.387 307.575 C 115.836 307.410,116.470 307.176,116.796 307.056 C 117.123 306.935,117.490 306.749,117.612 306.643 C 117.735 306.536,118.102 306.315,118.428 306.151 C 118.754 305.987,119.148 305.712,119.304 305.540 C 119.459 305.369,119.661 305.228,119.753 305.228 C 119.844 305.228,120.093 305.044,120.306 304.820 C 120.518 304.596,120.784 304.339,120.895 304.249 C 121.401 303.841,122.742 302.058,123.106 301.309 C 123.268 300.976,123.496 300.538,123.613 300.334 C 124.803 298.254,125.335 294.275,124.858 291.033 C 123.730 283.381,115.270 277.235,107.749 278.604 M130.540 303.366 C 130.363 303.665,130.219 303.967,130.219 304.037 C 130.219 304.265,129.041 306.212,128.737 306.488 C 128.573 306.636,128.439 306.839,128.439 306.940 C 128.439 307.206,125.830 309.920,124.957 310.562 C 123.397 311.710,122.658 312.193,121.787 312.632 C 120.644 313.210,118.314 314.084,117.456 314.259 C 117.093 314.333,116.296 314.495,115.684 314.621 C 115.072 314.746,114.254 314.903,113.866 314.970 L 113.161 315.091 113.792 316.003 C 115.499 318.471,117.945 321.478,121.246 325.167 C 122.831 326.939,128.390 332.515,129.831 333.778 C 130.389 334.268,131.155 334.954,131.533 335.302 C 131.912 335.651,132.444 336.118,132.716 336.341 C 132.988 336.563,133.388 336.911,133.606 337.115 C 133.823 337.319,134.110 337.553,134.243 337.634 C 134.376 337.716,135.210 338.363,136.097 339.072 C 136.983 339.782,137.960 340.549,138.268 340.778 C 138.576 341.007,139.086 341.394,139.402 341.639 C 139.957 342.069,141.759 343.334,142.465 343.789 C 142.655 343.912,143.064 344.186,143.374 344.398 C 145.015 345.521,148.427 347.646,148.590 347.646 C 148.662 347.646,148.808 347.749,148.913 347.877 C 149.019 348.004,149.311 348.204,149.562 348.322 C 150.075 348.562,151.001 349.081,151.823 349.589 C 153.196 350.438,158.252 352.946,160.994 354.139 C 161.565 354.387,162.485 354.796,163.040 355.048 C 163.594 355.300,164.128 355.506,164.226 355.506 C 164.324 355.506,164.828 355.707,165.345 355.951 C 165.862 356.196,166.363 356.395,166.458 356.395 C 166.552 356.394,167.130 356.589,167.742 356.828 C 170.026 357.719,174.080 359.067,174.471 359.065 C 174.563 359.064,175.273 359.259,176.047 359.497 C 185.213 362.316,198.824 364.256,209.418 364.253 C 213.188 364.252,222.274 363.627,224.107 363.243 C 224.471 363.167,225.569 362.992,226.548 362.854 C 227.527 362.716,228.795 362.503,229.366 362.380 C 229.937 362.258,231.172 361.998,232.110 361.802 C 237.434 360.690,247.201 357.640,250.905 355.932 C 251.413 355.698,251.901 355.506,251.990 355.506 C 252.140 355.506,253.111 355.084,254.876 354.250 C 255.284 354.057,256.151 353.654,256.804 353.354 C 259.196 352.255,263.107 350.238,264.328 349.475 C 264.632 349.284,264.922 349.129,264.971 349.129 C 265.061 349.129,267.602 347.619,268.595 346.975 C 268.880 346.790,269.408 346.448,269.768 346.215 C 270.128 345.982,270.569 345.692,270.748 345.569 C 270.928 345.447,271.668 344.949,272.393 344.463 C 273.118 343.977,273.800 343.493,273.908 343.387 C 274.017 343.281,274.239 343.123,274.402 343.035 C 274.565 342.948,274.811 342.787,274.947 342.677 C 275.083 342.567,275.829 342.010,276.604 341.440 C 279.915 339.003,280.888 338.246,280.829 338.150 C 280.794 338.095,280.380 337.930,279.908 337.785 C 279.437 337.640,278.717 337.373,278.309 337.191 C 277.901 337.009,277.401 336.807,277.197 336.743 C 276.993 336.679,276.559 336.456,276.233 336.246 C 275.642 335.868,275.295 335.662,274.354 335.131 C 271.306 333.414,265.777 326.557,265.777 324.493 C 265.777 324.365,265.374 323.488,265.250 323.346 C 265.226 323.318,264.317 323.884,263.230 324.603 C 262.143 325.323,261.147 325.980,261.016 326.063 C 260.886 326.146,260.364 326.481,259.856 326.808 C 259.348 327.134,258.520 327.660,258.016 327.977 C 257.513 328.294,256.751 328.777,256.324 329.052 C 255.897 329.327,255.483 329.551,255.405 329.551 C 255.326 329.551,254.974 329.744,254.624 329.980 C 253.352 330.836,250.047 332.545,246.302 334.284 C 245.583 334.618,244.960 334.891,244.916 334.891 C 244.873 334.891,243.826 335.287,242.589 335.772 C 238.659 337.314,238.025 337.526,233.074 338.955 C 232.340 339.167,231.393 339.405,230.971 339.483 C 230.548 339.561,229.681 339.755,229.043 339.915 C 228.405 340.074,227.582 340.247,227.215 340.300 C 226.848 340.353,225.714 340.556,224.694 340.750 C 216.564 342.300,206.233 342.618,197.849 341.577 C 196.585 341.420,195.083 341.247,194.512 341.192 C 193.941 341.138,192.852 340.966,192.091 340.811 C 191.331 340.656,190.263 340.461,189.718 340.378 C 188.556 340.202,186.129 339.650,183.834 339.041 C 182.937 338.803,181.935 338.540,181.609 338.458 C 180.390 338.150,175.194 336.398,174.600 336.095 C 174.260 335.922,173.883 335.780,173.762 335.780 C 173.508 335.780,170.681 334.589,168.039 333.369 C 166.658 332.732,162.758 330.793,161.884 330.310 C 158.307 328.334,156.192 327.013,153.430 325.031 C 153.022 324.739,152.454 324.344,152.167 324.153 C 151.880 323.963,151.555 323.698,151.444 323.565 C 151.333 323.431,151.180 323.322,151.103 323.322 C 151.026 323.322,150.651 323.061,150.269 322.741 C 149.886 322.422,148.906 321.608,148.090 320.932 C 144.670 318.100,138.725 312.321,136.665 309.826 C 136.362 309.459,135.972 309.014,135.799 308.837 C 135.626 308.660,135.302 308.293,135.080 308.021 C 133.751 306.392,132.900 305.326,132.443 304.716 C 132.158 304.335,131.685 303.753,131.393 303.423 L 130.861 302.822 130.540 303.366 M282.961 304.929 C 275.091 305.911,269.862 312.601,271.039 320.181 C 271.292 321.810,271.392 322.137,272.278 324.234 C 272.979 325.893,274.948 328.441,276.287 329.421 C 282.880 334.247,289.904 333.965,295.236 328.661 C 298.858 325.058,299.910 318.557,297.654 313.712 C 297.415 313.199,297.219 312.750,297.219 312.716 C 297.219 312.189,294.182 308.604,293.138 307.898 C 289.415 305.379,286.401 304.500,282.961 304.929 " stroke="none" fill="#059668" fill-rule="evenodd"></path></g></svg>